<?xml version="1.0" encoding="utf-8"?><svg width="35" height="35" xmlns="http://www.w3.org/2000/svg" viewBox="0 0 35 35"><g fill="none" fill-rule="evenodd"><circle cx="17.5" cy="17.5" r="16.5" stroke="#00768F" stroke-width="2"/><path d="M15.504 20.7h.505v-3.644h-.505A.504.504 0 0115 16.55v-1.204c0-.279.226-.505.504-.505h2.825c.279 0 .504.226.504.505v5.352h.505c.278 0 .504.226.504.504v1.205a.504.504 0 01-.504.505h-3.834a.504.504 0 01-.504-.505v-1.205c0-.278.226-.504.504-.504zM17.421 10a1.816 1.816 0 100 3.632 1.816 1.816 0 000-3.632z" fill="#00768F" fill-rule="nonzero"/></g></svg>