<?xml version="1.0" encoding="utf-8"?><svg width="35" height="35" xmlns="http://www.w3.org/2000/svg" viewBox="0 0 35 35"><g fill="none" fill-rule="evenodd"><circle fill="#F3E966" cx="17.5" cy="17.5" r="17.5"/><path d="M17.912 11.456a3.46 3.46 0 00-3.456 3.456 3.46 3.46 0 003.456 3.456 3.46 3.46 0 003.456-3.456 3.46 3.46 0 00-3.456-3.456zm0 5.76a2.307 2.307 0 01-2.304-2.304 2.307 2.307 0 012.304-2.304 2.307 2.307 0 012.304 2.304 2.307 2.307 0 01-2.304 2.304zm0-9.216A6.912 6.912 0 0011 14.912c0 2.787.97 3.565 6.202 11.148a.864.864 0 001.42 0c5.231-7.583 6.202-8.361 6.202-11.148A6.912 6.912 0 0017.912 8zm0 17.062c-5.015-7.252-5.76-7.828-5.76-10.15 0-1.539.6-2.985 1.687-4.073a5.722 5.722 0 014.073-1.687c1.539 0 2.985.6 4.073 1.687a5.722 5.722 0 011.687 4.073c0 2.322-.745 2.897-5.76 10.15z" fill="#033B47" fill-rule="nonzero"/></g></svg>