<?xml version="1.0" encoding="utf-8"?><svg width="22" height="22" xmlns="http://www.w3.org/2000/svg" viewBox="0 0 22 22"><path d="M12.26.851c1.64.004 2.031.02 2.92.06 1.08.049 1.818.22 2.463.471.667.26 1.233.607 1.797 1.17.564.565.911 1.13 1.17 1.798.251.645.423 1.383.472 2.463.043.928.057 1.314.06 3.14v2.086c-.003 1.827-.017 2.213-.06 3.141-.049 1.08-.22 1.818-.471 2.463a4.974 4.974 0 01-1.17 1.797 4.974 4.974 0 01-1.798 1.17c-.645.251-1.383.423-2.463.472-.928.043-1.314.057-3.14.06H9.953c-1.827-.003-2.213-.017-3.141-.06-1.08-.049-1.818-.22-2.463-.471a4.974 4.974 0 01-1.797-1.17 4.974 4.974 0 01-1.17-1.798C1.131 16.998.96 16.26.91 15.18c-.04-.889-.056-1.28-.06-2.92V9.733c.004-1.64.02-2.031.06-2.92.049-1.08.22-1.818.471-2.463a4.974 4.974 0 011.17-1.797 4.974 4.974 0 011.798-1.17C4.995 1.131 5.733.96 6.813.91c.889-.04 1.28-.056 2.92-.06zm-.471 1.827h-1.585c-1.994.003-2.352.016-3.308.06-.989.044-1.526.21-1.884.349a3.143 3.143 0 00-1.166.759 3.143 3.143 0 00-.76 1.166c-.138.358-.304.895-.349 1.884-.043.956-.056 1.314-.059 3.308v1.585c.003 1.994.016 2.352.06 3.308.044.989.21 1.526.349 1.884.184.473.404.811.759 1.167.355.355.693.574 1.166.759.358.138.895.304 1.884.349.956.043 1.314.056 3.308.059h1.585c1.994-.003 2.353-.016 3.308-.06.989-.044 1.526-.21 1.884-.348a3.143 3.143 0 001.167-.76c.355-.355.574-.693.759-1.166.138-.358.304-.895.349-1.884.043-.956.056-1.314.059-3.308v-1.585c-.003-1.994-.016-2.352-.06-3.308-.044-.989-.21-1.526-.348-1.884a3.143 3.143 0 00-.76-1.166 3.143 3.143 0 00-1.166-.76c-.358-.138-.895-.304-1.884-.349-.956-.043-1.314-.056-3.308-.059zm-.792 3.108a5.21 5.21 0 110 10.421 5.21 5.21 0 010-10.421zm0 1.828a3.382 3.382 0 110 6.765 3.382 3.382 0 010-6.765zm5.416-3.251a1.218 1.218 0 110 2.435 1.218 1.218 0 010-2.435z" fill="currentColor" fill-rule="evenodd"/></svg>