<?xml version="1.0" encoding="utf-8"?><svg width="35" height="35" xmlns="http://www.w3.org/2000/svg" viewBox="0 0 35 35"><g fill="none" fill-rule="evenodd"><circle fill="#033B47" cx="17.5" cy="17.5" r="17.5"/><path d="M15.393 20.284l-.285 1.667c-.064.381.09.76.404.986.176.126.385.195.59.195.158 0 .32-.04.468-.12l1.494-.784 1.494.785c.342.18.749.151 1.062-.076.313-.227.468-.605.403-.986l-.284-1.667 1.206-1.177c.277-.27.374-.666.255-1.033a.998.998 0 00-.813-.684l-1.67-.245-.746-1.516a1.012 1.012 0 00-.907-.565.997.997 0 00-.9.562l-.745 1.515-1.67.245a.998.998 0 00-.814.684c-.119.367-.022.763.255 1.033l1.203 1.181zm1.785-2.092l.886-1.796.886 1.796 1.98.288-1.433 1.4.338 1.974-1.771-.93-1.771.933.338-1.973-1.433-1.4 1.98-.292zM24.4 9.304h-1.728V7.288A.289.289 0 0022.384 7h-.576a.289.289 0 00-.288.288v2.016h-6.912V7.288A.289.289 0 0014.32 7h-.576a.289.289 0 00-.288.288v2.016h-1.728c-.954 0-1.728.774-1.728 1.728v12.672c0 .954.774 1.728 1.728 1.728H24.4c.954 0 1.728-.774 1.728-1.728V11.032c0-.954-.774-1.728-1.728-1.728zm.576 14.4c0 .317-.26.576-.576.576H11.728a.578.578 0 01-.576-.576v-9.792h13.824v9.792zm0-10.944H11.152v-1.728c0-.317.26-.576.576-.576H24.4c.317 0 .576.26.576.576v1.728z" fill="#FFF" fill-rule="nonzero"/></g></svg>