<?xml version="1.0" encoding="utf-8"?><svg width="27" height="27" xmlns="http://www.w3.org/2000/svg" viewBox="0 0 27 27"><path d="M17.69 16.44l-2.037 2.545a21.503 21.503 0 01-7.64-7.637L10.56 9.31a1.73 1.73 0 00.5-2.053L8.738 2.029a1.731 1.731 0 00-2.017-.973L2.3 2.202a1.741 1.741 0 00-1.284 1.923 25.679 25.679 0 0021.858 21.859c.874.12 1.7-.431 1.923-1.285l1.146-4.42a1.733 1.733 0 00-.973-2.017l-5.227-2.322a1.73 1.73 0 00-2.053.5z" stroke="#FFF" fill="none" stroke-linecap="round" stroke-linejoin="round"/></svg>