<?xml version="1.0" encoding="UTF-8"?>
<svg width="45px" height="45px" viewBox="0 0 45 45" version="1.1" xmlns="http://www.w3.org/2000/svg" xmlns:xlink="http://www.w3.org/1999/xlink">
    <title>Pijl naar links</title>
    <g stroke="none" stroke-width="1" fill="none" fill-rule="evenodd">
        <g transform="translate(-96.000000, -2259.000000)">
            <g transform="translate(118.500000, 2281.500000) scale(-1, 1) translate(-118.500000, -2281.500000) translate(96.000000, 2259.000000)">
                <rect fill="#00768F" x="0" y="0" width="45" height="45" rx="22.5"></rect>
                <g transform="translate(23.250000, 22.250000) scale(-1, 1) rotate(90.000000) translate(-23.250000, -22.250000) translate(14.250000, 16.750000)" fill="#FFFFFF" fill-rule="nonzero">
                    <path d="M16.5,0.375 C16.2015797,0.374864793 15.9153326,0.493302572 15.70425,0.70425 L9,7.40925 L2.29575,0.70425 C1.85626941,0.264769435 1.14373061,0.264769447 0.704250027,0.704250027 C0.264769447,1.14373061 0.264769435,1.85626941 0.70425,2.29575 L8.20425,9.79575 C8.41524911,10.0068844 8.70150653,10.1255098 9,10.1255098 C9.29849347,10.1255098 9.58475089,10.0068844 9.79575,9.79575 L17.29575,2.29575 C17.617713,1.97399341 17.714063,1.48993059 17.5398458,1.06941207 C17.3656287,0.648893541 16.9551784,0.374793677 16.5,0.375 Z"></path>
                </g>
            </g>
        </g>
    </g>
</svg>
