<svg width="505" height="369" xmlns="http://www.w3.org/2000/svg"><defs><filter x="-11.1%" y="-15.5%" width="122.1%" height="131%" filterUnits="objectBoundingBox" id="a"><feOffset dx="9" dy="12" in="SourceAlpha" result="shadowOffsetOuter1"/><feGaussianBlur stdDeviation="7.5" in="shadowOffsetOuter1" result="shadowBlurOuter1"/><feColorMatrix values="0 0 0 0 0.0312360357 0 0 0 0 0.227030376 0 0 0 0 0.268512228 0 0 0 0.25 0" in="shadowBlurOuter1" result="shadowMatrixOuter1"/><feMerge><feMergeNode in="shadowMatrixOuter1"/><feMergeNode in="SourceGraphic"/></feMerge></filter></defs><g filter="url(#a)" transform="translate(6 3)" fill="none" fill-rule="evenodd"><path d="M143.495 235.249l.37-5.661c.37-5.66-1.073-7.49-5.781-7.138l-17.263 1.288c-3.14.234-3.593-.789-3.408-3.619l1.617-24.767c.138-2.123.87-2.705 3.312-2.888l8.718-.65c3.663-.274 5.139-1.616 5.438-6.216l.589-9.022c.312-4.777-.827-5.924-4.664-5.638l-8.718.652c-2.965.22-3.117-.12-2.897-3.482l1.074-16.453c.207-3.183.778-3.93 3.393-4.126l17.089-1.275c4.36-.324 5.684-2.007 6.065-7.846l.427-6.545c.37-5.662-.77-6.808-5.13-6.483l-34.526 2.575c-4.36.326-6.056 2.388-6.437 8.227L96.076 238.61c-.404 6.193.713 7.693 5.42 7.342l35.573-2.654c4.186-.312 6.069-2.565 6.426-8.05m64.193-5.141l6.664-102.074c.45-6.9-1.921-7.779-5.758-7.493l-9.068.677c-4.184.312-5.555 2.703-5.914 8.187l-2.655 40.688c-.174 2.654-.395 3.374-1.092 3.427-.698.052-1.198-.263-1.756-2.334l-11.784-42.78c-1.42-4.823-2.258-5.289-6.443-4.976l-8.021.598c-4.883.364-6.207 2.047-6.611 8.239l-6.676 102.251c-.45 6.9 1.921 7.779 5.759 7.493l9.067-.677c4.184-.312 5.555-2.703 5.914-8.187l2.667-40.865c.173-2.654.394-3.374 1.092-3.426.698-.052 1.198.262 1.756 2.334l11.772 42.956c1.42 4.823 2.258 5.289 6.443 4.977l8.022-.599c4.882-.364 6.218-2.223 6.622-8.416m56.473-3.86l.37-5.662c.37-5.661-1.073-7.49-5.78-7.14l-17.264 1.289c-3.14.235-3.592-.788-3.408-3.619l1.617-24.767c.138-2.122.87-2.705 3.312-2.887l8.72-.65c3.66-.274 5.137-1.617 5.437-6.215l.59-9.023c.31-4.776-.83-5.924-4.666-5.637l-8.718.65c-2.965.221-3.117-.12-2.897-3.48l1.074-16.453c.209-3.184.778-3.932 3.393-4.127l17.089-1.274c4.36-.326 5.684-2.01 6.065-7.847l.427-6.545c.37-5.661-.77-6.808-5.13-6.484l-34.525 2.577c-4.36.325-6.057 2.388-6.438 8.225l-6.687 102.43c-.404 6.19.713 7.693 5.421 7.342l35.573-2.654c4.185-.313 6.068-2.566 6.425-8.05m60.522.589c.035-.53-.082-1.402-.198-2.273l-6.834-49.487c7.181-6.345 10.282-13.971 11.149-27.239 1.604-24.59-5.295-35.87-21.511-34.66l-24.936 1.86c-4.534.34-6.057 2.39-6.449 8.403l-6.686 102.43c-.392 6.015.723 7.515 5.083 7.19l9.417-.703c4.184-.312 5.893-2.552 6.238-7.858l2.622-40.159c.116-1.768.976-1.656 2.023-1.735l2.44-.182c1.221-.092 1.745-.13 1.99 1.435l4.377 41.925c.421 4.194 1.235 5.014 4.374 4.779l13.601-1.015c2.267-.17 3.185-.94 3.3-2.711m-15.939-80.143c-.658 10.084-3.015 14.31-7.2 14.621l-5.755.429c-1.22.09-1.686-.754-1.535-3.054l1.397-21.406c.092-1.415 1.033-2.541 2.428-2.645l5.58-.417c3.661-.274 5.744 2.388 5.085 12.472m78.376 43.445l1.997-30.604c.347-5.308-.363-7.72-4.897-7.381l-16.566 1.236c-5.755.429-6.591 2.603-6.926 7.735l-.53 8.137c-.232 3.538-.36 5.484 2.78 5.25l5.057-.377c1.743-.131 2.022.905 1.792 4.442l-1.131 17.338c-.406 6.191-4.275 9.649-8.983 10-5.231.391-9.057-2.141-8.502-10.633l1.686-25.828c2.529-38.743 2.9-39.122 13.363-39.903l12.555-.937c4.186-.312 5.533-2.348 5.914-8.187l.37-5.66c.415-6.369-1.085-7.314-5.445-6.988l-23.714 1.769c-19.705 1.47-21.044 21.99-23.76 60.924-2.785 39.994-4.02 58.923 25.798 56.697 23.89-1.782 27.686-14.74 29.142-37.03m25.945 25.175l6.698-102.605c.393-6.016-.876-7.858-4.886-7.559l-9.417.704c-4.359.324-5.87 2.197-6.274 8.39l-6.675 102.251c-.416 6.37.713 7.694 5.595 7.33l8.72-.651c4.359-.326 5.823-1.491 6.239-7.86m56.51-4.392l.369-5.661c.37-5.662-1.073-7.49-5.781-7.14l-17.265 1.289c-3.137.235-3.592-.788-3.407-3.62l1.617-24.766c.14-2.122.87-2.706 3.311-2.887l8.72-.65c3.661-.274 5.137-1.617 5.438-6.216l.589-9.022c.312-4.777-.829-5.925-4.664-5.638l-8.72.65c-2.963.222-3.115-.118-2.896-3.48l1.075-16.452c.207-3.184.776-3.932 3.393-4.127l17.089-1.274c4.36-.326 5.684-2.01 6.064-7.847l.428-6.545c.37-5.662-.771-6.808-5.13-6.484l-34.527 2.577c-4.36.325-6.055 2.388-6.436 8.225l-6.687 102.43c-.404 6.19.713 7.693 5.42 7.341l35.573-2.653c4.186-.313 6.067-2.566 6.426-8.05" fill="#F3E966"/><path d="M44.022 188.367c2.076-32.004 1.676-43.59-12.58-42.52l-21.962 1.65c-3.082.232-4.212 1.883-4.492 6.211L.064 229.65c-.307 4.722.404 5.582 4.13 5.303l20.805-1.563c13.485-1.014 16.557-6.986 19.023-45.023m-15.368 2.459c-1.71 26.363-2.267 27.058-8.56 27.53-4.366.328-4.735.095-4.521-3.184l3.18-49.054c.23-3.54 1.026-3.993 4.623-4.263 7.063-.53 7.166-.147 5.278 28.97m53.35 32.671l.272-4.197c.272-4.198-.79-5.553-4.258-5.293l-12.715.955c-2.311.174-2.647-.585-2.51-2.682l1.19-18.364c.102-1.573.642-2.005 2.44-2.14l6.422-.482c2.697-.204 3.784-1.199 4.005-4.608l.434-6.69c.23-3.541-.61-4.391-3.435-4.18l-6.422.482c-2.184.165-2.295-.087-2.133-2.58l.79-12.198c.154-2.36.573-2.914 2.5-3.06l12.586-.945c3.21-.241 4.187-1.488 4.467-5.817l.315-4.852c.272-4.198-.567-5.048-3.778-4.808l-25.43 1.911c-3.21.24-4.46 1.77-4.74 6.098l-4.926 75.942c-.298 4.592.525 5.704 3.993 5.443l26.2-1.968c3.082-.23 4.47-1.901 4.732-5.967m13.999 42.623c.47-2.243.195-2.995-1.764-2.848l-8.38.628c-1.74.13-2.524.521-3.168 3.77l-7.963 42.53c-.18 1.118-.544 1.697-1.088 1.738-.545.04-.835-.49-.871-1.59l-2.485-41.748c-.227-3.184-.967-3.46-2.708-3.33l-8.38.628c-1.96.147-2.336.948-2.154 3.141l6.357 67.172c.182 2.194.894 2.912 2.743 2.774l11.536-.865c1.85-.139 2.663-.971 3.133-3.213l15.192-68.787zm34.457 66.39l-5.05-67.27c-.225-3.184-1.352-4.203-3.963-4.007l-12.624.946c-3.048.228-4.201 1.308-4.845 4.557l-13.24 68.75c-.182 1.118.435 1.623 1.74 1.525l10.014-.75c1.523-.115 1.87-.471 2.074-1.92l2.772-15.99c.318-1.568.768-1.824 1.965-1.913l4.57-.343c1.198-.09 1.612.211 1.736 1.636l1.052 15.482c.116 1.536.632 1.938 1.72 1.857l10.338-.775c1.088-.082 1.778-.684 1.741-1.785zm-15.112-30.761c.059.768-.515 1.252-1.603 1.334l-2.72.204c-1.088.081-1.489-.44-1.337-1.114l3.501-25.533c.188-1.228.442-1.8.987-1.84.543-.041.733.387.762 1.599l.41 25.35zm56.464 24.351l4.159-63.987c.281-4.325-1.199-4.876-3.593-4.697l-5.66.424c-2.611.196-3.467 1.696-3.69 5.133l-1.658 25.506c-.108 1.664-.246 2.115-.68 2.147-.437.033-.748-.164-1.097-1.462l-7.354-26.818c-.887-3.022-1.41-3.315-4.021-3.12l-5.007.376c-3.047.228-3.873 1.283-4.125 5.165l-4.166 64.098c-.281 4.325 1.198 4.875 3.592 4.696l5.66-.424c2.612-.196 3.468-1.694 3.691-5.132l1.665-25.617c.108-1.663.246-2.115.68-2.148.436-.033.748.166 1.098 1.464l7.346 26.927c.886 3.024 1.41 3.315 4.021 3.12l5.007-.376c3.047-.228 3.88-1.394 4.132-5.275zm89.436-71.37c.754-3.257.042-3.977-2.026-3.822l-7.943.595c-1.525.115-2.345 1.059-2.692 3.072l-6.71 36.588c-.18 1.117-.427 1.578-.972 1.619-.434.032-.739-.277-.768-1.488l-1.91-35.612c-.168-2.415-.661-3.151-2.512-3.012l-7.618.57c-2.83.213-3.068 2.217-2.98 4.197l.616 13.859-6.282 21.658c-.405 1.246-.528 1.475-.965 1.508-.434.032-.746-.165-.885-1.37l-2.772-35.657c-.161-2.525-.662-3.15-2.403-3.02l-7.4.555c-1.851.138-3.28.466-2.988 4.307l5.869 66.325c.183 2.194.69 2.707 2.541 2.568l7.073-.53c1.85-.139 2.656-.86 3.083-2.438l7.673-26.398c.145-.562.405-1.245.841-1.277.435-.033.493.736.457 1.29l1.44 24.501c.146 2.749.655 3.262 2.832 3.099l8.488-.637c1.85-.138 2.67-1.081 3.257-3.444l15.656-67.607zm34.74 65.375l-5.05-67.27c-.226-3.183-1.353-4.202-3.964-4.007l-12.624.946c-3.048.229-4.201 1.308-4.845 4.557l-13.24 68.75c-.182 1.118.435 1.623 1.74 1.525l10.014-.75c1.523-.114 1.87-.471 2.074-1.92l2.772-15.99c.318-1.568.768-1.823 1.965-1.913l4.57-.343c1.198-.09 1.612.212 1.736 1.636l1.052 15.483c.116 1.535.632 1.937 1.72 1.856l10.338-.775c1.089-.081 1.778-.684 1.741-1.785zm-15.113-30.76c.059.768-.515 1.252-1.603 1.333l-2.72.204c-1.088.082-1.489-.44-1.337-1.114l3.501-25.533c.188-1.228.442-1.8.987-1.84.543-.04.733.387.762 1.599l.41 25.35zm49.62-35.28l.266-4.104c.217-3.327-.582-4.37-3.194-4.175l-26.554 1.99c-2.83.212-3.656 1.267-3.908 5.15l-.245 3.77c-.238 3.66.364 4.386 2.976 4.19l5.659-.424c.87-.065 1.4.116 1.27 2.112l-3.517 54.117c-.23 3.549.467 4.49 3.405 4.27l5.66-.425c2.83-.212 3.546-1.259 3.798-5.14l3.496-53.784c.115-1.774.472-2.243 1.56-2.324l5.659-.424c2.61-.196 3.438-1.251 3.669-4.8zm29.902 58.123l.23-3.548c.231-3.55-.669-4.696-3.608-4.476l-10.774.807c-1.959.147-2.242-.493-2.126-2.268l1.009-15.525c.086-1.33.543-1.696 2.067-1.81l5.441-.408c2.286-.172 3.207-1.012 3.394-3.896l.368-5.655c.195-2.995-.517-3.714-2.911-3.535l-5.441.408c-1.85.139-1.945-.075-1.808-2.182l.67-10.313c.13-1.996.485-2.465 2.118-2.587l10.665-.8c2.72-.203 3.547-1.259 3.785-4.918l.267-4.103c.23-3.548-.481-4.268-3.201-4.064l-21.55 1.615c-2.72.204-3.779 1.497-4.016 5.157l-4.174 64.209c-.252 3.88.445 4.821 3.383 4.601l22.201-1.664c2.613-.195 3.788-1.607 4.011-5.045zm38.86.288c.022-.332-.05-.88-.124-1.425l-4.265-31.021c4.482-3.979 6.417-8.758 6.957-17.076 1.002-15.414-3.303-22.485-13.424-21.727l-15.562 1.166c-2.83.213-3.78 1.497-4.026 5.269l-4.173 64.208c-.245 3.77.452 4.71 3.174 4.507l5.876-.44c2.613-.196 3.677-1.6 3.894-4.927l1.636-25.173c.072-1.109.61-1.039 1.263-1.088l1.523-.114c.762-.057 1.088-.081 1.24.9l2.733 26.28c.263 2.63.77 3.143 2.73 2.996l8.488-.636c1.414-.106 1.988-.59 2.06-1.699zm-9.947-50.238c-.41 6.32-1.883 8.969-4.495 9.165l-3.59.269c-.763.057-1.054-.474-.96-1.915l.872-13.418c.058-.887.646-1.594 1.516-1.66l3.483-.26c2.285-.171 3.585 1.497 3.174 7.819zm31.647-18.704c.238-3.66-.452-4.713-3.172-4.509l-5.769.432c-2.394.18-3.568 1.592-3.676 4.912l-2.2 45.52c-.13 3.652.684 4.474 3.295 4.278l4.572-.342c2.394-.18 3.33-1.243 3.56-4.793l3.39-45.498zm-4.173 64.208l.202-3.105c.23-3.549-.002-4.967-3.05-4.738l-5.658.424c-3.047.228-3.468 1.695-3.7 5.243l-.2 3.106c-.232 3.548.002 4.965 3.05 4.736l5.658-.424c3.048-.228 3.468-1.694 3.698-5.242zM113.469 65.058c1.822-27.876 3.105-47.487-19.162-45.828-22.404 1.669-23.548 21.27-25.37 49.145-1.823 27.875-3.29 48.198 19.115 46.53 22.266-1.66 23.594-21.972 25.417-49.847m-16.181 1.205c-1.612 24.654-2.126 30.407-8.073 30.85-5.947.443-5.572-5.3-4.098-29.943 1.612-24.655 2.09-29.848 8.036-30.29 5.947-.444 5.609 4.74 4.135 29.383m67.736 35.38l5.285-80.826c.357-5.464-1.524-6.16-4.566-5.933l-7.192.536c-3.32.247-4.407 2.14-4.691 6.483l-2.107 32.217c-.137 2.102-.312 2.673-.865 2.714-.553.042-.95-.209-1.392-1.848l-9.347-33.874c-1.126-3.82-1.79-4.188-5.109-3.94l-6.361.473c-3.874.289-4.923 1.622-5.244 6.524l-5.294 80.966c-.357 5.463 1.523 6.16 4.566 5.933l7.192-.536c3.318-.247 4.406-2.14 4.69-6.483l2.116-32.358c.137-2.102.312-2.672.866-2.713.552-.041.949.208 1.393 1.847l9.335 34.015c1.127 3.819 1.791 4.188 5.111 3.941l6.362-.474c3.872-.288 4.932-1.761 5.252-6.664m53.119-79.93l.339-5.182c.274-4.202-.74-5.52-4.06-5.273l-33.745 2.514c-3.595.268-4.646 1.6-4.967 6.503l-.311 4.762c-.302 4.623.464 5.542 3.783 5.295l7.192-.536c1.105-.082 1.779.146 1.614 2.667l-4.47 68.36c-.293 4.482.593 5.671 4.327 5.393l7.192-.536c3.596-.268 4.507-1.59 4.828-6.493l4.442-67.94c.147-2.24.6-2.831 1.982-2.934l7.192-.536c3.318-.247 4.369-1.58 4.662-6.063m47.719 32.131c2.234-34.179 1.805-46.553-13.547-45.41l-23.649 1.762c-3.32.247-4.536 2.01-4.838 6.633l-5.303 81.106c-.33 5.043.436 5.962 4.446 5.663l22.404-1.669c14.522-1.081 17.83-7.461 20.487-48.085m-16.55 2.627c-1.842 28.156-2.44 28.897-9.217 29.402-4.703.35-5.099.101-4.87-3.401l3.426-52.39c.247-3.782 1.105-4.263 4.977-4.552 7.606-.566 7.717-.157 5.683 30.94m58.832 34.79l.293-4.484c.293-4.481-.85-5.93-4.585-5.652l-13.691 1.02c-2.49.185-2.85-.624-2.704-2.865l1.282-19.612c.11-1.68.691-2.141 2.627-2.285l6.915-.516c2.904-.216 4.075-1.28 4.313-4.921l.467-7.145c.247-3.782-.657-4.69-3.699-4.464l-6.915.515c-2.351.175-2.471-.094-2.297-2.755L291 25.068c.164-2.521.617-3.112 2.69-3.266l13.554-1.01c3.457-.257 4.508-1.59 4.81-6.213l.34-5.183c.293-4.483-.612-5.39-4.07-5.133l-27.382 2.04c-3.458.258-4.804 1.89-5.106 6.514l-5.303 81.106c-.32 4.903.565 6.091 4.3 5.813l28.212-2.102c3.32-.247 4.813-2.032 5.097-6.374m58.85-89.695c.073-1.12-.444-1.639-1.55-1.557l-12.309.917c-2.904.217-3.55 1.659-5.603 5.714l-11.663 22.614c-.627 1.163-.94 1.744-1.623 1.656-.543-.099-.497-.8-.452-1.501l1.365-20.87c.312-4.764-.694-6.222-3.876-5.985l-7.468.556c-3.456.258-4.654 1.741-4.975 6.644l-5.294 80.966c-.33 5.043.564 6.091 4.438 5.803l6.914-.515c3.458-.258 4.619-1.181 4.949-6.224l1.31-20.031c.22-3.363.513-5.754 1.757-7.937 3.27-5.82 3.418-5.97 4.524-6.053.969-.072.988 1.738 1.377 4.218l4.466 30.614c.481 3.17 1.255 3.95 3.607 3.775l11.34-.845c2.351-.175 3.218-.798 2.488-4.368l-10.478-52.33c-.203-1.099-.435-1.78-.224-2.91a9.713 9.713 0 011.004-2.724l15.45-27.915c.315-.58.49-1.152.526-1.712" fill="#FEFEFE"/></g></svg>