<?xml version="1.0" encoding="UTF-8"?>
<svg width="15px" height="15px" viewBox="0 0 15 15" version="1.1" xmlns="http://www.w3.org/2000/svg" xmlns:xlink="http://www.w3.org/1999/xlink">
    <title>clock-regular</title>
    <g id="Page-1" stroke="none" stroke-width="1" fill="none" fill-rule="evenodd">
        <g fill="currentColor" fill-rule="nonzero">
            <path d="M7.5,0 C3.35685484,0 0,3.35685484 0,7.5 C0,11.6431452 3.35685484,15 7.5,15 C11.6431452,15 15,11.6431452 15,7.5 C15,3.35685484 11.6431452,0 7.5,0 Z M7.5,13.5483871 C4.15826613,13.5483871 1.4516129,10.8417339 1.4516129,7.5 C1.4516129,4.15826613 4.15826613,1.4516129 7.5,1.4516129 C10.8417339,1.4516129 13.5483871,4.15826613 13.5483871,7.5 C13.5483871,10.8417339 10.8417339,13.5483871 7.5,13.5483871 Z M9.36895161,10.391129 L6.80141129,8.52520161 C6.70766129,8.45564516 6.65322581,8.34677419 6.65322581,8.23185484 L6.65322581,3.26612903 C6.65322581,3.06653226 6.81653226,2.90322581 7.01612903,2.90322581 L7.98387097,2.90322581 C8.18346774,2.90322581 8.34677419,3.06653226 8.34677419,3.26612903 L8.34677419,7.55141129 L10.3669355,9.02116935 C10.5302419,9.1391129 10.5635081,9.36592742 10.4455645,9.52923387 L9.87701613,10.3125 C9.75907258,10.4727823 9.53225806,10.5090726 9.36895161,10.391129 Z" id="Shape"></path>
        </g>
    </g>
</svg>
