<svg class="{{ class }}" viewBox="0 0 1440 208" version="1.1" preserveAspectRatio="none" xmlns="http://www.w3.org/2000/svg" xmlns:xlink="http://www.w3.org/1999/xlink">
    <defs>
        <linearGradient x1="79.3447161%" y1="49.500817%" x2="75.4974547%" y2="50.5307638%" id="linearGradient-1">
            <stop stop-color="#00768F" stop-opacity="0.25" offset="0%"></stop>
            <stop stop-color="#00768F" offset="100%"></stop>
        </linearGradient>
    </defs>
    <g id="Page-1" stroke="none" stroke-width="1" fill="none" fill-rule="evenodd">
        <g id="global-wave" fill-rule="nonzero">
            <path d="M1439.25342,0.0583401412 C1412.59168,2.68353951 1386.1353,5.98155539 1360.17664,9.92353108 C1111.80081,47.712885 891.410738,116.374341 672.897987,106.093006 C456.704698,95.7972426 281.220403,25.3952731 75.1626846,27.9946533 C49.7234899,28.3310615 24.704698,29.6326501 0,31.6997004 L0,142 C35.6796875,142 1411.40625,142 1440,142 L1440,2.84217094e-14 C1439.83407,0.0159027959 1439.58521,0.0353495096 1439.25342,0.0583401412 Z" id="Combined-Shape-Copy" fill="#00768F" transform="translate(720.000000, 71.000000) scale(-1, 1) rotate(-180.000000) translate(-720.000000, -71.000000) "></path>
            <path d="M673.247036,206.834076 C891.873136,218.395229 1112.37752,141.186809 1360.88462,98.6934438 C1386.85433,94.2607718 1413.32442,90.5522188 1440,87.6002358 L1440,20.9999998 C1285.63218,23.2381108 1055.29155,143.14569 907.892985,149.242642 C724.976137,156.86554 515.966298,32.9975038 325.770777,54.8594318 C216.486736,67.4060028 108.348523,74.2578158 0,74.0264048 L0,123.179452 C24.7175129,120.85595 49.7492828,119.391486 75.2016734,119.014056 C281.366279,116.091105 456.941602,195.256698 673.247036,206.834076 Z" id="Fill-13-Copy-2" fill="url(#linearGradient-1)" opacity="0.378245908" transform="translate(720.000000, 114.500000) scale(-1, 1) rotate(-180.000000) translate(-720.000000, -114.500000) "></path>
        </g>
    </g>
</svg>
