<?xml version="1.0" encoding="UTF-8"?>
<svg width="20px" height="20px" viewBox="0 0 20 20" version="1.1" xmlns="http://www.w3.org/2000/svg" xmlns:xlink="http://www.w3.org/1999/xlink">
    <title>Profile-Picture</title>
    <g id="Fase-2" stroke="none" stroke-width="1" fill="none" fill-rule="evenodd" opacity="0.5">
        <g id="Desktop---Faciliteiten-en-verhuur-overzicht" transform="translate(-1147.000000, -9.000000)" fill="#00768F" fill-rule="nonzero">
            <g id="Profile-Picture" transform="translate(1147.000000, 9.000000)">
                <path d="M9.9999994,3.19999981 C8.01177442,3.19999981 6.39999962,4.81177461 6.39999962,6.79999959 C6.39999962,8.78822458 8.01177442,10.3999994 9.9999994,10.3999994 C11.9882244,10.3999994 13.5999992,8.78822458 13.5999992,6.79999959 C13.5999992,4.81177461 11.9882244,3.19999981 9.9999994,3.19999981 Z M9.9999994,9.59999943 C8.4536022,9.59999943 7.19999957,8.3463968 7.19999957,6.79999959 C7.19999957,5.25360239 8.4536022,3.99999976 9.9999994,3.99999976 C11.5463966,3.99999976 12.7999992,5.25360239 12.7999992,6.79999959 C12.7999992,8.3463968 11.5463966,9.59999943 9.9999994,9.59999943 L9.9999994,9.59999943 Z" id="Shape"></path>
                <path d="M9.9999994,-4.33949407e-06 C5.69727403,-0.00356252257 1.87552742,2.7479351 0.513959886,6.82955148 C-0.847607645,10.9111678 0.556852147,15.4060515 3.99999976,17.9863989 C7.54953403,20.6710679 12.4504648,20.6710679 15.999999,17.9863989 C16.2666657,17.7858656 16.522399,17.5725323 16.767199,17.346399 C19.8008651,14.5596882 20.8128923,10.1965774 19.3157489,6.35894157 C17.8186055,2.52130579 14.1193285,-0.00382501554 9.9999994,-4.33949407e-06 L9.9999994,-4.33949407e-06 Z M9.9999994,19.2000027 C7.83514889,19.2019728 5.73964901,18.4366746 4.08559976,17.039999 C4.55479377,14.1379355 7.0602519,12.0050158 9.9999994,12.0050158 C12.9397469,12.0050158 15.445205,14.1379355 15.9143991,17.039999 C14.2603498,18.4366746 12.1648499,19.2019728 9.9999994,19.2000027 Z M16.599999,16.395199 C15.8640619,13.3467309 13.1360417,11.1989192 9.9999994,11.1989192 C6.86395712,11.1989192 4.13593688,13.3467309 3.3999998,16.395199 C-0.115370858,12.7752718 -0.0589480677,6.99931662 3.52646798,3.44875387 C7.11188403,-0.101808877 12.8881148,-0.101808877 16.4735308,3.44875387 C20.0589469,6.99931662 20.1153697,12.7752718 16.599999,16.395199 L16.599999,16.395199 Z" id="Shape"></path>
            </g>
        </g>
    </g>
</svg>