<svg viewBox="0 0 172 37" class="{{ class ?? '' }}" preserveAspectRatio="none" xmlns="http://www.w3.org/2000/svg"><title>Logo van Biljoenbad</title><g fill="{{ fill ?? '#00768F' }}" fill-rule="evenodd"><path d="M22.101 9.124a10.618 10.618 0 012.104-.853c.744-.215 1.584-.323 2.52-.323v18.16c-1.087.581-2.325.947-3.714 1.1h-.91V9.123zm2.312-3.109c-.733 0-1.346-.252-1.838-.758-.493-.506-.74-1.125-.74-1.858 0-.732.247-1.346.74-1.838.492-.493 1.105-.74 1.838-.74.733 0 1.351.247 1.857.74.505.492.758 1.106.758 1.838 0 .733-.253 1.352-.758 1.858-.506.506-1.124.758-1.857.758zm10.693 14.179a6.842 6.842 0 001.08 2.047 5.24 5.24 0 001.611 1.384 4 4 0 001.952.511v2.907c-1.34 0-2.59-.013-3.752-.518a9.795 9.795 0 01-3.05-2.066 9.786 9.786 0 01-2.066-3.052c-.506-1.163-.758-2.414-.758-3.753V1.137a9.914 9.914 0 012.103-.834C32.971.101 33.8 0 34.71 0v17.654c0 .91.132 1.757.397 2.54"/><path d="M44.527.821c.733 0 1.352.247 1.857.74.505.492.758 1.106.758 1.838 0 .733-.253 1.353-.758 1.858-.505.506-1.124.758-1.857.758-.733 0-1.345-.252-1.838-.758-.493-.505-.74-1.125-.74-1.858 0-.732.247-1.346.74-1.838.493-.493 1.105-.74 1.838-.74zM46.84 27.36a9.32 9.32 0 01-.758 3.753 9.818 9.818 0 01-2.065 3.052 9.74 9.74 0 01-3.07 2.066 9.352 9.352 0 01-3.733.758v-3.147c.682 0 1.326-.164 1.933-.492a5.108 5.108 0 001.591-1.365 6.878 6.878 0 001.08-2.047 7.752 7.752 0 00.398-2.502V9.124a10.65 10.65 0 012.104-.854c.745-.214 1.585-.322 2.52-.322v19.41zM58.417 7.873a9.35 9.35 0 013.733.758 9.736 9.736 0 013.07 2.066 9.74 9.74 0 012.065 3.07 9.358 9.358 0 01.758 3.735c0 1.34-.253 2.59-.758 3.753a9.8 9.8 0 01-2.065 3.052 9.72 9.72 0 01-3.07 2.066 9.346 9.346 0 01-3.733.758c-1.34 0-2.59-.253-3.752-.758a9.78 9.78 0 01-3.05-2.066 9.786 9.786 0 01-2.066-3.052c-.506-1.162-.758-2.413-.758-3.753a9.34 9.34 0 01.758-3.734 9.726 9.726 0 012.065-3.071 9.798 9.798 0 013.051-2.066 9.312 9.312 0 013.752-.758zm0 3.146a3.95 3.95 0 00-1.97.512 5.232 5.232 0 00-1.592 1.403A7.139 7.139 0 0053.775 15a7.75 7.75 0 00-.398 2.502c0 .885.132 1.725.398 2.52.265.797.625 1.486 1.08 2.067a5.33 5.33 0 001.591 1.384 3.953 3.953 0 001.971.512 3.99 3.99 0 001.952-.512 5.254 5.254 0 001.61-1.384c.455-.58.815-1.27 1.08-2.066a7.927 7.927 0 00.399-2.521c0-.884-.133-1.718-.398-2.502a7.145 7.145 0 00-1.08-2.066 5.16 5.16 0 00-1.611-1.403 3.988 3.988 0 00-1.952-.512zm39.935-3.146c1.339 0 2.57.252 3.696.758a8.873 8.873 0 012.898 2.066 9.516 9.516 0 011.895 3.07c.455 1.176.682 2.42.682 3.735v8.606c-.657.354-1.358.638-2.103.853-.745.215-1.586.322-2.52.322v-9.781a9.46 9.46 0 00-.322-2.502 7.193 7.193 0 00-.91-2.067 4.571 4.571 0 00-1.42-1.402c-.557-.341-1.189-.512-1.896-.512-.682 0-1.307.17-1.876.512a4.483 4.483 0 00-1.44 1.402 7.154 7.154 0 00-.91 2.067 9.417 9.417 0 00-.322 2.502v8.606c-.657.354-1.358.638-2.103.853-.746.215-1.573.322-2.482.322v-9.781c0-1.314.227-2.559.682-3.734a9.504 9.504 0 011.895-3.07 8.91 8.91 0 012.88-2.067c1.111-.506 2.337-.758 3.676-.758m-79.857 5.914a9.81 9.81 0 00-2.066-3.052 9.728 9.728 0 00-3.07-2.066 9.344 9.344 0 00-3.733-.759c-.525 0-1.038.041-1.54.121v3.34a3.891 3.891 0 011.54-.314c.682 0 1.332.17 1.952.512a5.257 5.257 0 011.61 1.384A6.868 6.868 0 0114.269 15a7.85 7.85 0 01.399 2.54c0 .885-.133 1.725-.398 2.52-.265.797-.625 1.486-1.08 2.067a5.248 5.248 0 01-1.611 1.384 3.99 3.99 0 01-1.952.512 3.983 3.983 0 01-1.951-.512 5.247 5.247 0 01-1.611-1.384 6.894 6.894 0 01-1.08-2.028 7.571 7.571 0 01-.398-2.483V0c-.91 0-1.738.101-2.483.303A9.906 9.906 0 000 1.137V17.54c0 1.34.252 2.59.758 3.753a9.785 9.785 0 002.066 3.052 9.779 9.779 0 003.05 2.066 9.312 9.312 0 003.752.758 9.344 9.344 0 003.733-.758 9.715 9.715 0 003.07-2.066 9.798 9.798 0 002.066-3.052c.505-1.162.757-2.413.757-3.753 0-1.34-.252-2.59-.757-3.753m109.66 0a9.809 9.809 0 00-2.065-3.052 9.731 9.731 0 00-3.07-2.066 9.344 9.344 0 00-3.733-.759 9.71 9.71 0 00-1.602.132v3.356a3.894 3.894 0 011.602-.34c.682 0 1.332.17 1.952.51a5.26 5.26 0 011.61 1.385A6.862 6.862 0 01123.93 15a7.85 7.85 0 01.399 2.54c0 .885-.133 1.725-.398 2.52-.266.797-.625 1.486-1.08 2.067a5.246 5.246 0 01-1.611 1.384 3.99 3.99 0 01-1.952.512 3.99 3.99 0 01-1.952-.512 5.244 5.244 0 01-1.61-1.384 6.895 6.895 0 01-1.08-2.028 7.578 7.578 0 01-.398-2.483V0c-.91 0-1.738.101-2.483.303a9.911 9.911 0 00-2.103.834V17.54c0 1.34.252 2.59.758 3.753a9.79 9.79 0 002.065 3.052 9.78 9.78 0 003.052 2.066c1.161.505 2.412.758 3.751.758a9.344 9.344 0 003.733-.758 9.72 9.72 0 003.07-2.066 9.798 9.798 0 002.065-3.052c.506-1.162.758-2.413.758-3.753 0-1.34-.252-2.59-.758-3.753M168.924.303a9.887 9.887 0 00-2.103.834v16.479c0 .885-.14 1.712-.417 2.483a7.262 7.262 0 01-1.099 2.028 5.33 5.33 0 01-1.592 1.384 3.89 3.89 0 01-1.932.512 3.887 3.887 0 01-1.933-.512 5.332 5.332 0 01-1.592-1.384c-.455-.581-.815-1.27-1.08-2.066a7.915 7.915 0 01-.398-2.521c0-.91.133-1.757.398-2.54a6.858 6.858 0 011.08-2.047 5.342 5.342 0 011.592-1.384 3.882 3.882 0 011.933-.512c.586 0 1.137.119 1.655.35v-3.36a9.956 9.956 0 00-1.655-.137c-1.34 0-2.59.253-3.752.759a9.791 9.791 0 00-3.051 2.066 9.792 9.792 0 00-2.065 3.052c-.507 1.163-.759 2.413-.759 3.753 0 1.34.252 2.59.759 3.753a9.78 9.78 0 002.065 3.052 9.779 9.779 0 003.05 2.066c1.162.505 2.413.758 3.753.758a9.44 9.44 0 003.77-.758 9.72 9.72 0 003.07-2.066 9.798 9.798 0 002.066-3.052c.505-1.162.758-2.413.758-3.753V0c-.935 0-1.776.101-2.52.303m-19.643 13.484a9.806 9.806 0 00-2.065-3.052 9.797 9.797 0 00-3.05-2.066 9.306 9.306 0 00-3.753-.759c-1.34 0-2.59.253-3.752.759a9.787 9.787 0 00-3.05 2.066 9.794 9.794 0 00-2.066 3.052c-.506 1.163-.758 2.413-.758 3.753 0 1.34.252 2.59.758 3.753a9.786 9.786 0 002.065 3.052 9.779 9.779 0 003.051 2.066 9.312 9.312 0 003.752.758c.733 0 1.434-.076 2.103-.227.24-.055.473-.12.704-.19l-.618-3.41a4.03 4.03 0 01-2.189.643 3.99 3.99 0 01-1.952-.512 5.24 5.24 0 01-1.61-1.384 6.846 6.846 0 01-1.08-2.047 7.739 7.739 0 01-.398-2.502c0-.91.132-1.757.398-2.54a6.862 6.862 0 011.08-2.047 5.25 5.25 0 011.61-1.384 3.985 3.985 0 011.952-.512c1.061 0 2.002.367 2.823 1.1.821.733 1.434 1.68 1.839 2.843a8.326 8.326 0 01.379 2.54v8.366a9.827 9.827 0 002.103.833c.745.203 1.573.304 2.482.304V17.54c0-1.34-.253-2.59-.758-3.753m-62.329-1.479a7.48 7.48 0 00-1.705-2.274A8.314 8.314 0 0082.69 8.46a8.341 8.341 0 00-3.108-.587 9.44 9.44 0 00-3.77.758 9.734 9.734 0 00-3.07 2.066 9.732 9.732 0 00-2.066 3.07 9.442 9.442 0 00-.758 3.773c0 1.34.252 2.59.758 3.753a9.79 9.79 0 002.065 3.052 9.726 9.726 0 003.07 2.066 9.436 9.436 0 003.771.758 9.26 9.26 0 003.638-.72 9.63 9.63 0 002.994-1.971l-2.236-2.275a7.79 7.79 0 01-1.288.985 5.93 5.93 0 01-1.403.626 4.446 4.446 0 01-1.705.17 4.068 4.068 0 01-1.97-.492 5.196 5.196 0 01-1.592-1.346 6.697 6.697 0 01-1.08-1.99 7.41 7.41 0 01-.398-2.465c0-.934.12-1.8.36-2.596s.574-1.479 1.004-2.048c.43-.568.94-1.01 1.535-1.327a4.17 4.17 0 011.99-.473c.934 0 1.66.132 2.178.398.518.265.91.575 1.176.928.265.355.429.702.492 1.043.063.341.095.575.095.701 0 .152-.063.436-.19.853-.126.417-.455.816-.985 1.195-.53.379-1.333.644-2.406.796-.652.092-1.457.085-2.41-.019l.513 3.207c.742.055 1.475.062 2.2.015 1.376-.088 2.602-.341 3.676-.758 1.074-.417 1.951-1.01 2.634-1.782.682-.77 1.048-1.712 1.099-2.824a5.41 5.41 0 00-.55-2.692"/></g></svg>
