<svg width="505px" height="369px" viewBox="0 0 505 369" version="1.1" xmlns="http://www.w3.org/2000/svg" xmlns:xlink="http://www.w3.org/1999/xlink">
    <defs>
        <filter x="-11.1%" y="-15.5%" width="122.1%" height="131.0%" filterUnits="objectBoundingBox" id="filter-1">
            <feOffset dx="9" dy="12" in="SourceAlpha" result="shadowOffsetOuter1"></feOffset>
            <feGaussianBlur stdDeviation="7.5" in="shadowOffsetOuter1" result="shadowBlurOuter1"></feGaussianBlur>
            <feColorMatrix values="0 0 0 0 0.0312360357   0 0 0 0 0.227030376   0 0 0 0 0.268512228  0 0 0 0.25 0" type="matrix" in="shadowBlurOuter1" result="shadowMatrixOuter1"></feColorMatrix>
            <feMerge>
                <feMergeNode in="shadowMatrixOuter1"></feMergeNode>
                <feMergeNode in="SourceGraphic"></feMergeNode>
            </feMerge>
        </filter>
    </defs>
    <g id="UI-design" stroke="none" stroke-width="1" fill="none" fill-rule="evenodd">
        <g id="Homepage---Desktop" transform="translate(-477.000000, -221.000000)">
            <g id="Pay-off" filter="url(#filter-1)" transform="translate(483.000000, 224.000000)">
                <path d="M143.495261,235.24893 L143.86488,229.587564 C144.2345,223.927534 142.79192,222.097368 138.083924,222.449785 L120.820828,223.737976 C117.68172,223.971586 117.228338,222.949043 117.413148,220.119027 L119.029901,195.352389 C119.168176,193.228543 119.900768,192.646521 122.341852,192.463637 L131.059822,191.813535 C134.722779,191.539878 136.198598,190.19829 136.49775,185.598181 L137.086749,176.575505 C137.399197,171.799186 136.259758,170.652496 132.422628,170.938168 L123.704658,171.589605 C120.739724,171.809866 120.588154,171.469463 120.807532,168.108152 L121.881822,151.655351 C122.089235,148.471584 122.659619,147.725368 125.274877,147.529136 L142.363799,146.254294 C146.723449,145.92991 148.047698,144.246585 148.429283,138.407676 L148.856074,131.862598 C149.225694,126.201233 148.086255,125.054543 143.726605,125.380261 L109.200414,127.955308 C104.840764,128.281027 103.144237,130.343467 102.762651,136.182376 L96.0762592,238.61024 C95.6720709,244.802901 96.7889071,246.303343 101.496903,245.952261 L137.069464,243.298454 C141.254941,242.986085 143.137607,240.732752 143.495261,235.24893 M207.688078,230.106845 L214.351867,128.032733 C214.80259,121.132569 212.430643,120.254196 208.593513,120.539867 L199.525867,121.216668 C195.34172,121.529038 193.970936,123.919867 193.611953,129.403689 L190.956808,170.091833 C190.782635,172.74564 190.561927,173.466492 189.865234,173.518554 C189.167211,173.570616 188.667294,173.255576 188.108876,171.185126 L176.324925,128.405174 C174.904948,123.582134 174.067321,123.116249 169.881844,123.428619 L161.860568,124.02666 C156.978398,124.391091 155.65415,126.074416 155.249961,132.265742 L148.574206,234.517397 C148.123483,241.417562 150.49543,242.295935 154.33256,242.010263 L163.400206,241.333463 C167.584353,241.021093 168.955136,238.630264 169.314119,233.146442 L171.98123,192.280754 C172.154074,189.626948 172.374782,188.90743 173.072805,188.855368 C173.770827,188.803306 174.270745,189.117011 174.829163,191.188796 L186.601147,234.144957 C188.021125,238.967997 188.858752,239.433882 193.044228,239.121512 L201.065505,238.523471 C205.947675,238.15904 207.283889,236.299506 207.688078,230.106845 M264.161429,226.246277 L264.531049,220.584912 C264.900669,214.923546 263.458089,213.094716 258.750092,213.445798 L241.486996,214.733989 C238.347889,214.968933 237.894507,213.94639 238.079317,211.11504 L239.69607,186.348402 C239.834345,184.22589 240.566936,183.642533 243.008021,183.460985 L251.72732,182.810883 C255.388947,182.537225 256.864767,181.194303 257.165249,176.595528 L257.754247,167.572852 C258.065365,162.796534 256.925927,161.648509 253.088797,161.935515 L244.370827,162.585618 C241.405893,162.807213 241.254322,162.46681 241.473701,159.1055 L242.547991,142.652699 C242.756733,139.468932 243.325787,138.72138 245.941045,138.526483 L263.029968,137.251641 C267.389618,136.925923 268.713866,135.242597 269.095452,129.405024 L269.522243,122.859946 C269.891862,117.19858 268.752424,116.05189 264.392774,116.376274 L229.866582,118.952656 C225.506932,119.278375 223.810405,121.340815 223.428819,127.178389 L216.742428,229.607588 C216.33824,235.798914 217.455076,237.300691 222.163072,236.949609 L257.735633,234.295802 C261.921109,233.983432 263.803776,231.730099 264.161429,226.246277 M324.683312,226.834974 C324.717881,226.305014 324.600879,225.433315 324.485207,224.561617 L317.651233,175.075062 C324.832224,168.730222 327.932774,161.103864 328.799651,147.836165 C330.404438,123.245736 323.505316,111.965722 307.288589,113.176488 L282.352563,115.036021 C277.81874,115.375089 276.296386,117.425515 275.904164,123.439298 L269.217772,225.868497 C268.82555,231.883614 269.941056,233.384056 274.300706,233.059673 L283.718028,232.356174 C287.902175,232.043804 289.610668,229.80382 289.956356,224.497542 L292.578262,184.339358 C292.693934,182.570598 293.554164,182.682731 294.600533,182.603971 L297.041617,182.422423 C298.26216,182.330314 298.786009,182.291601 299.030649,183.857454 L303.407584,225.781728 C303.829056,229.976024 304.642751,230.79566 307.781858,230.560716 L321.383327,229.546182 C323.650239,229.376648 324.56764,228.605068 324.683312,226.834974 M308.744465,146.692145 C308.086329,156.776077 305.729007,161.001076 301.543531,161.313446 L295.789165,161.741953 C294.568623,161.832727 294.103275,160.987727 294.253516,158.687672 L295.650891,137.282344 C295.742631,135.867337 296.683964,134.74067 298.07868,134.636547 L303.658872,134.220054 C307.320499,133.946397 309.4026,136.608213 308.744465,146.692145 M387.119771,190.136884 L389.116781,159.532672 C389.463798,154.225058 388.753809,151.812871 384.219986,152.151939 L367.653583,153.388068 C361.899218,153.816575 361.06292,155.991148 360.727869,161.122553 L360.197372,169.260182 C359.966028,172.797701 359.838389,174.744004 362.977496,174.509059 L368.035169,174.132614 C369.778231,174.001793 370.05744,175.037685 369.827425,178.575204 L368.695963,195.913052 C368.290446,202.104378 364.421406,205.561803 359.71341,205.912885 C354.481564,206.304014 350.6564,203.771684 351.21083,195.280304 C352.145515,180.951349 352.896721,169.45241 352.896721,169.45241 C355.425557,130.709233 355.797835,130.330118 366.260197,129.549194 L378.815297,128.612085 C383.000773,128.299716 384.347624,126.263974 384.72921,120.425065 L385.09883,114.765034 C385.513654,108.396165 384.013903,107.451047 379.654253,107.776765 L355.940099,109.545525 C336.234589,111.016599 334.895715,131.536879 332.18074,170.469613 C329.395297,210.463603 328.160129,229.392667 357.978325,227.167367 C381.867982,225.385259 385.663896,212.427259 387.119771,190.136884 M413.064939,215.312006 L419.763296,112.706599 C420.155519,106.691481 418.887112,104.849301 414.877138,105.148322 L405.459816,105.851821 C401.101496,106.176205 399.589779,108.049088 399.18559,114.241748 L392.511165,216.493404 C392.09501,222.862273 393.223813,224.186507 398.105982,223.822076 L406.825281,223.171973 C411.184931,222.846254 412.648784,221.680875 413.064939,215.312006 M469.574189,210.920143 L469.943808,205.258777 C470.313428,199.597412 468.870848,197.768581 464.162852,198.119663 L446.898426,199.407854 C443.760648,199.642799 443.305937,198.620256 443.490746,195.788905 L445.1075,171.022267 C445.247104,168.899756 445.978366,168.316399 448.419451,168.134851 L457.13875,167.484748 C460.800377,167.211091 462.276196,165.868168 462.576678,161.269394 L463.165677,152.246718 C463.478125,147.470399 462.337356,146.322374 458.501556,146.609381 L449.782257,147.259483 C446.818652,147.481079 446.667082,147.140676 446.88646,143.779365 L447.96075,127.326564 C448.168162,124.142797 448.737217,123.395246 451.353805,123.200349 L468.442727,121.925507 C472.802377,121.599788 474.126626,119.916463 474.506882,114.078889 L474.935002,107.533811 C475.304622,101.872446 474.163853,100.725756 469.805533,101.050139 L435.278012,103.626521 C430.918362,103.95224 429.223165,106.01468 428.841579,111.852254 L422.155187,214.281453 C421.750999,220.472779 422.867835,221.974556 427.575831,221.623474 L463.148392,218.969667 C467.333869,218.657298 469.215206,216.403965 469.574189,210.920143" id="Fill-1" fill="#F3E966"></path>
                <path d="M44.0224019,188.36671 C46.0977355,156.363175 45.6984274,144.777061 31.4421948,145.8474 L9.48025141,147.496774 C6.39796711,147.728929 5.26815232,149.379653 4.98770185,153.708249 L0.0637927398,229.649664 C-0.243367308,234.372382 0.468442715,235.232163 4.19309216,234.952768 L24.9985112,233.389776 C38.4841727,232.376126 41.5557732,226.403555 44.0224019,188.36671 M28.6537158,190.825925 C26.9443033,217.188923 26.3874088,217.884036 20.0946343,218.356443 C15.7276197,218.684428 15.3590276,218.450924 15.5727042,215.172421 L18.7538139,166.1177 C18.9835162,162.577349 19.7794613,162.125188 23.3759049,161.855241 C30.4392505,161.324796 30.5420823,161.70812 28.6537158,190.825925 M82.0034095,223.496229 L82.2758471,219.298557 C82.5482847,215.100885 81.4852439,213.745752 78.0183418,214.006251 L65.3032513,214.960513 C62.9915381,215.134628 62.656333,214.376078 62.7925518,212.278592 L63.9837986,193.915465 C64.0852949,192.341676 64.6248282,191.909761 66.4223823,191.774788 L72.8446982,191.292933 C75.5423647,191.089123 76.6294442,190.094369 76.8497981,186.684942 L77.2838286,179.995662 C77.5135309,176.453961 76.673515,175.603628 73.848978,175.815537 L67.4266621,176.297392 C65.2431548,176.462059 65.1323101,176.209659 65.293903,173.716701 L66.0845062,161.519157 C66.2380862,159.158473 66.6574265,158.605082 68.5831864,158.459311 L81.170071,157.514498 C84.3805612,157.272895 85.356796,156.025741 85.6372464,151.697146 L85.9524194,146.844853 C86.2235215,142.647181 85.384841,141.796849 82.1743508,142.037102 L56.7441698,143.948324 C53.5336796,144.188577 52.2836717,145.717825 52.0032213,150.046421 L47.0779767,225.987837 C46.780165,230.579631 47.6028197,231.691811 51.0710573,231.431313 L77.2704738,229.463401 C80.3527581,229.232597 81.7403203,227.561626 82.0034095,223.496229" id="Fill-3" fill="#FEFEFE"></path>
                <path d="M96.0024467,266.11863 C96.4726779,263.876338 96.1970727,263.124121 94.2379219,263.270941 L85.8578463,263.89895 C84.1174099,264.02938 83.3335397,264.420123 82.6897387,267.668729 L74.7269682,310.199456 C74.5461998,311.316529 74.1827101,311.896204 73.6392379,311.936932 C73.0944402,311.97776 72.8044378,311.447058 72.7678173,310.346276 L70.282667,268.598525 C70.055587,265.415183 69.3164096,265.138578 67.5746476,265.269107 L59.1945721,265.897117 C57.2354212,266.043937 56.8588598,266.845028 57.0407952,269.038446 L63.3978425,336.210476 C63.5797778,338.403894 64.2915741,339.122079 66.140705,338.983503 L77.6768957,338.118972 C79.5273521,337.980298 80.339929,337.147875 80.8101602,334.905584 L96.0024467,266.11863 Z M130.459345,332.508798 L125.409282,265.238821 C125.183527,262.05538 124.057311,261.036253 121.445994,261.231947 L108.821533,262.178034 C105.774113,262.40641 104.620967,263.486135 103.977166,266.734742 L90.7368321,335.485634 C90.5547382,336.602806 91.1722372,337.107621 92.4778959,337.009774 L102.491039,336.259381 C104.014087,336.145243 104.361766,335.788533 104.565456,334.339088 L107.336611,318.350052 C107.654868,316.781802 108.105457,316.526254 109.302421,316.436553 L113.872889,316.094039 C115.069853,316.004337 115.484273,316.305279 115.607992,317.730188 L116.659516,333.212313 C116.776036,334.74798 117.292039,335.150183 118.380309,335.068627 L128.71821,334.293897 C129.80648,334.212341 130.495965,333.609579 130.459345,332.508798 L130.459345,332.508798 Z M115.34745,301.747913 C115.405666,302.516422 114.832074,303.00028 113.743804,303.081836 L111.023792,303.285676 C109.935522,303.367232 109.535412,302.846125 109.687386,302.172083 L113.188345,276.638837 C113.376312,275.411007 113.629781,274.839576 114.174579,274.798749 C114.718051,274.758021 114.907883,275.186011 114.937305,276.397551 L115.34745,301.747913 Z M171.811107,326.099287 L175.969888,262.112424 C176.250985,257.787472 174.771217,257.235714 172.377288,257.415117 L166.717225,257.839286 C164.105907,258.03498 163.249963,259.53465 163.026542,262.97219 L161.368842,288.477518 C161.260687,290.141585 161.123198,290.592761 160.68842,290.625344 C160.252317,290.658026 159.940631,290.460947 159.592324,289.163087 L152.237601,262.345197 C151.351068,259.322836 150.827954,259.03004 148.216637,259.225734 L143.210065,259.600931 C140.162645,259.829307 139.336908,260.884496 139.084606,264.766417 L134.918626,328.864038 C134.637529,333.188989 136.117385,333.739397 138.511313,333.559994 L144.171377,333.135825 C146.782694,332.94013 147.638551,331.441811 147.861971,328.004272 L149.526958,302.386835 C149.635025,300.724119 149.772602,300.271592 150.20738,300.239009 C150.643483,300.206327 150.955081,300.404757 151.304713,301.702517 L158.651,328.629914 C159.537445,331.653625 160.060647,331.94507 162.671964,331.749376 L167.678536,331.37418 C170.725957,331.145804 171.558892,329.979857 171.811107,326.099287 L171.811107,326.099287 Z M261.247221,254.728367 C262.001042,251.471515 261.289333,250.751979 259.221488,250.906945 L251.277516,251.502273 C249.753142,251.61651 248.933279,252.561041 248.58614,254.573672 L241.876216,291.162224 C241.695447,292.279297 241.449176,292.73997 240.904378,292.780797 C240.469601,292.81338 240.165201,292.504193 240.135779,291.292654 L238.226643,255.680675 C238.057779,253.265841 237.564785,252.529915 235.714329,252.66859 L228.09644,253.23948 C225.266408,253.451565 225.027963,255.45605 225.115601,257.436098 L225.731807,271.294885 L219.450128,292.95307 C219.044684,294.198543 218.921592,294.428204 218.485489,294.460886 C218.050711,294.493469 217.739025,294.29639 217.599671,293.091745 L214.828178,257.434174 C214.666513,254.908583 214.16632,254.283414 212.424558,254.413943 L205.024058,254.968542 C203.173602,255.107217 201.744852,255.434725 202.037347,259.275819 L207.905947,325.601364 C208.089208,327.794682 208.596687,328.307742 210.447144,328.169067 L217.520235,327.639004 C219.370691,327.50033 220.17607,326.778665 220.603109,325.200919 L228.275839,298.802603 C228.420527,298.240669 228.681195,297.558481 229.117298,297.525799 C229.552076,297.493217 229.610292,298.261725 229.574212,298.816864 L231.01441,323.317162 C231.160264,326.065719 231.669069,326.57868 233.845608,326.415568 L242.334378,325.779413 C244.183509,325.640838 245.003285,324.697658 245.590822,322.335013 L261.247221,254.728367 Z M295.986383,320.104074 L290.93632,252.834097 C290.710565,249.650655 289.584349,248.631529 286.973032,248.827223 L274.348571,249.77331 C271.301151,250.001686 270.148006,251.081411 269.504205,254.330018 L256.26387,323.08091 C256.081776,324.198082 256.699275,324.702897 258.004934,324.60505 L268.018077,323.854657 C269.541125,323.740519 269.888804,323.383809 270.092494,321.934364 L272.863649,305.945328 C273.181906,304.377078 273.632495,304.12153 274.829459,304.031829 L279.399927,303.689315 C280.596892,303.599613 281.011311,303.900555 281.13503,305.325464 L282.186554,320.807589 C282.303074,322.343256 282.819077,322.745459 283.907347,322.663903 L294.245248,321.889173 C295.333518,321.807617 296.023003,321.204855 295.986383,320.104074 L295.986383,320.104074 Z M280.874488,289.343189 C280.932704,290.111698 280.359112,290.595556 279.270842,290.677112 L276.55083,290.880952 C275.46256,290.962508 275.06245,290.441401 275.214424,289.767359 L278.715383,264.234113 C278.90335,263.006283 279.156819,262.434852 279.701617,262.394025 C280.245089,262.353297 280.434921,262.781287 280.464343,263.992827 L280.874488,289.343189 Z M330.493628,254.06331 L330.760328,249.959873 C330.97655,246.633091 330.177743,245.589429 327.566425,245.785123 L301.011846,247.775144 C298.181814,247.987228 297.356077,249.042417 297.103775,252.924338 L296.858758,256.694151 C296.620853,260.354557 297.222629,261.080987 299.835272,260.885193 L305.49401,260.461123 C306.364891,260.395858 306.893966,260.576646 306.764216,262.572985 L303.246901,316.690259 C303.016282,320.238557 303.713594,321.179608 306.65232,320.959377 L312.311058,320.535307 C315.14109,320.323222 315.858132,319.276179 316.110347,315.395608 L319.606065,261.610607 C319.721331,259.837133 320.077622,259.368216 321.165892,259.28666 L326.82463,258.86259 C329.435947,258.666896 330.263009,257.611607 330.493628,254.06331 L330.493628,254.06331 Z M360.396129,312.187016 L360.626748,308.638719 C360.857455,305.089071 359.957152,303.942796 357.018426,304.163026 L346.244422,304.970438 C344.285271,305.117259 344.002379,304.477149 344.117733,302.702325 L345.126768,287.177343 C345.213239,285.8469 345.6697,285.480694 347.194074,285.366456 L352.635423,284.958677 C354.920657,284.78742 355.841928,283.946852 356.029356,281.063101 L356.396924,275.407706 C356.59155,272.413197 355.879842,271.693662 353.485913,271.873065 L348.044564,272.280844 C346.194107,272.419518 346.09981,272.206149 346.236759,270.099052 L346.907021,259.786433 C347.036771,257.790093 347.391737,257.321275 349.024805,257.198892 L359.690114,256.399625 C362.410126,256.195785 363.237188,255.140497 363.475006,251.481442 L363.741706,247.378005 C363.972325,243.829708 363.260616,243.110173 360.540604,243.314012 L338.991271,244.928936 C336.271259,245.132776 335.212411,246.425871 334.974505,250.086277 L330.801327,314.294655 C330.549112,318.175225 331.246423,319.116276 334.183824,318.896145 L356.385324,317.232347 C358.997967,317.036554 360.172708,315.624556 360.396129,312.187016 L360.396129,312.187016 Z M399.256126,312.475178 C399.277722,312.142905 399.205108,311.595911 399.132407,311.050269 L394.86713,280.028965 C399.34942,276.050482 401.283855,271.270974 401.824454,262.953343 C402.82629,247.539118 398.521355,240.467706 388.399517,241.226244 L372.837656,242.392462 C370.007624,242.604547 369.057471,243.889496 368.812367,247.660659 L364.639188,311.869038 C364.394172,315.63885 365.091483,316.579901 367.812821,316.375962 L373.688948,315.935601 C376.301591,315.739807 377.366312,314.336054 377.582534,311.009272 L379.218639,285.836216 C379.290713,284.727289 379.828312,284.797219 380.481804,284.748246 L382.004851,284.634107 C382.767038,284.576988 383.093121,284.552551 383.245635,285.53443 L385.977634,311.814317 C386.240707,314.443871 386.748186,314.956931 388.707337,314.810111 L397.196107,314.173956 C398.61046,314.067963 399.184052,313.584105 399.256126,312.475178 L399.256126,312.475178 Z M389.309386,262.236615 C388.898538,268.557906 387.42581,271.20598 384.814492,271.401674 L381.2236,271.670779 C380.461413,271.727897 380.170085,271.197295 380.263755,269.756094 L381.135841,256.338209 C381.193518,255.450797 381.781595,254.744072 382.652476,254.678808 L386.134674,254.417849 C388.419908,254.246592 389.720234,255.915324 389.309386,262.236615 L389.309386,262.236615 Z M420.956348,243.532513 C421.194254,239.872107 420.504141,238.820299 417.784129,239.024138 L412.015371,239.456454 C409.621442,239.635856 408.446701,241.047855 408.339086,244.367842 L406.139042,289.887501 C406.009831,293.539761 406.823035,294.361909 409.434353,294.166215 L414.006147,293.823601 C416.400075,293.644198 417.335832,292.580764 417.566538,289.031116 L420.956348,243.532513 Z M416.78317,307.740891 L416.984994,304.635624 C417.215613,301.087327 416.983288,299.669213 413.935867,299.897589 L408.277129,300.321659 C405.229708,300.550035 404.808542,302.017123 404.577923,305.56542 L404.376098,308.670687 C404.145479,312.218984 404.379218,313.635648 407.426639,313.407272 L413.085377,312.983202 C416.132798,312.754826 416.552551,311.289188 416.78317,307.740891 L416.78317,307.740891 Z" id="Fill-5" fill="#FEFEFE"></path>
                <path d="M113.468544,65.0577971 C115.291211,37.1824816 116.573536,17.5710037 94.3074588,19.2296336 C71.9032316,20.8985544 70.7590572,40.4997413 68.9363897,68.3750568 C67.1137223,96.2503722 65.6474126,116.573128 88.0516398,114.904207 C110.317717,113.245577 111.645876,92.9331126 113.468544,65.0577971 M97.2877132,66.2631288 C95.675658,90.9174043 95.1620304,96.6701341 89.2149341,97.1131412 C83.2678379,97.5561484 83.6433155,91.8137096 85.1172205,67.1697251 C86.7292756,42.5154495 87.2063056,37.3224326 93.1534019,36.8794255 C99.1004981,36.4364183 98.7616182,41.6191442 97.2877132,66.2631288 M165.024273,101.643059 L170.309199,20.8170225 C170.666465,15.3530947 168.784604,14.6577971 165.742645,14.8843967 L158.550869,15.4201216 C155.231282,15.6674022 154.143872,17.5599503 153.859889,21.9031069 L151.753326,54.1202335 C151.615909,56.2218477 151.441073,56.793197 150.888473,56.834361 C150.334544,56.8756239 149.93848,56.6252949 149.495761,54.9859748 L140.149385,21.1115362 C139.023003,17.2925185 138.358372,16.9242877 135.040113,17.1714693 L128.678566,17.6453494 C124.80505,17.9338928 123.755567,19.2666291 123.434986,24.1694986 L118.14091,105.135463 C117.783731,110.598046 119.664177,111.294788 122.707464,111.068089 L129.899239,110.532364 C133.217499,110.285183 134.304996,108.391289 134.588892,104.049478 L136.704692,71.6910777 C136.842109,69.5894635 137.016857,69.0194596 137.570785,68.9781968 C138.123386,68.9370328 138.519537,69.1860163 138.963585,70.8252375 L148.299484,104.839703 C149.425866,108.658721 150.090408,109.028297 153.409996,108.781017 L159.771542,108.307137 C163.64373,108.018692 164.703691,106.545929 165.024273,101.643059 M218.142867,21.7137386 L218.481747,16.5310127 C218.756493,12.3291298 217.741546,11.010929 214.421959,11.2582095 L180.677468,13.7718817 C177.08158,14.0397442 176.030768,15.3725795 175.710187,20.275449 L175.398843,25.0370447 C175.096561,29.6600578 175.862656,30.5790559 179.182244,30.3317754 L186.374019,29.7960504 C187.47922,29.7137225 188.153,29.9420251 187.988135,32.4634239 L183.518386,100.822395 C183.225253,105.305479 184.111199,106.494043 187.845237,106.215889 L195.037013,105.680164 C198.6329,105.412302 199.544234,104.089857 199.864815,99.1869872 L204.307116,31.2478012 C204.453682,29.0062588 204.906059,28.415574 206.288888,28.3125652 L213.480664,27.7768403 C216.798923,27.5296587 217.849734,26.1968234 218.142867,21.7137386 M265.86154,53.8450858 C268.09637,19.6662732 267.666868,7.29192506 252.314938,8.43551085 L228.666031,10.1971495 C225.346444,10.44443 224.130034,12.2073409 223.827751,16.830354 L218.524526,97.936247 C218.194796,102.979045 218.960891,103.898043 222.971229,103.599307 L245.375456,101.930387 C259.897157,100.848646 263.205308,94.4686692 265.86154,53.8450858 M249.311498,56.4717261 C247.470444,84.6282434 246.872097,85.3690485 240.094771,85.8739005 C235.392354,86.2241898 234.996203,85.9752063 235.225202,82.4729645 L238.650775,30.0833017 C238.898073,26.3012034 239.75575,25.8195739 243.627938,25.5311295 C251.234164,24.9645315 251.344866,25.3740252 249.311498,56.4717261 M308.142763,91.2604647 L308.435896,86.7773799 C308.728941,82.2956406 307.585081,80.8464571 303.851044,81.1246106 L290.159571,82.1445066 C287.670213,82.3299423 287.309331,81.5213449 287.455897,79.2798025 L288.738222,59.6683246 C288.848103,57.9878405 289.42948,57.526793 291.364909,57.3826202 L298.280385,56.8674772 C301.184194,56.6511686 302.354857,55.5878988 302.593005,51.9457288 L303.060153,44.8013169 C303.307451,41.0192186 302.403205,40.1105115 299.361246,40.3371111 L292.445771,40.8522541 C290.094563,41.0273987 289.974711,40.7578333 290.148726,38.0965062 L291.000588,25.0683819 C291.165454,22.5469831 291.61783,21.9562983 293.69141,21.8018345 L307.244732,20.7922295 C310.70247,20.534658 311.753281,19.2018227 312.055564,14.5788097 L312.394444,9.39608376 C312.687577,4.91299895 311.783243,4.00563728 308.325506,4.26320878 L280.942561,6.3030009 C277.484824,6.5605724 276.139413,8.19384608 275.837131,12.8168591 L270.533906,93.9227522 C270.213325,98.8256216 271.099271,100.014185 274.833309,99.7360317 L303.046482,97.6343947 C306.36607,97.3871142 307.858868,95.6022759 308.142763,91.2604647 M366.99318,1.56527421 C367.066463,0.444503008 366.549132,-0.0739469673 365.442603,0.00847987074 L353.13396,0.925367123 C350.230151,1.14167573 349.58464,2.58356626 347.530913,6.63947451 L335.868376,29.2534739 C335.241164,30.415508 334.928178,30.9971483 334.245249,30.9087739 C333.701798,30.8100097 333.747633,30.1090231 333.793468,29.4080366 L335.158137,8.53720475 C335.469568,3.7742635 334.463771,2.31613448 331.282333,2.55312401 L323.814258,3.10943095 C320.357848,3.3669035 319.159737,4.84995798 318.839156,9.75282744 L313.54508,90.7187923 C313.21535,95.76159 314.109117,96.8103243 317.982634,96.5217808 L324.896781,96.0067368 C328.354518,95.7491653 329.516032,94.8258237 329.845762,89.783026 L331.155535,69.7517635 C331.375385,66.3894499 331.669251,63.9976883 332.913109,61.8149927 C336.183334,55.9948281 336.330634,55.8446089 337.437163,55.762182 C338.405542,55.6900462 338.424662,57.5001675 338.813725,59.9803034 L343.280054,90.5938332 C343.761433,93.7646647 344.535349,94.5438336 346.886557,94.3686889 L358.226821,93.5239375 C360.57803,93.3487929 361.444944,92.7258897 360.714714,89.1558555 L350.236648,36.8258277 C350.033543,35.726984 349.80175,35.0466783 350.013183,33.9156161 C350.216795,32.9243832 350.547992,32.0642319 351.017427,31.1924442 L366.46752,3.27673019 C366.781747,2.6963364 366.956582,2.12498708 366.99318,1.56527421" id="Fill-7" fill="#FEFEFE"></path>
            </g>
        </g>
    </g>
</svg>
