<?xml version="1.0" encoding="UTF-8"?>
<svg width="1440px" height="287px" viewBox="0 0 1440 287" version="1.1" xmlns="http://www.w3.org/2000/svg" xmlns:xlink="http://www.w3.org/1999/xlink">
    <!-- Generator: Sketch 63.1 (92452) - https://sketch.com -->
    <title>upper-wave</title>
    <desc>Created with Sketch.</desc>
    <defs>
        <linearGradient x1="79.3447161%" y1="48.8241813%" x2="75.4974547%" y2="51.2502069%" id="linearGradient-1">
            <stop stop-color="#00768F" stop-opacity="0.25" offset="0%"></stop>
            <stop stop-color="#00768F" offset="100%"></stop>
        </linearGradient>
    </defs>
    <g id="UI-design" stroke="none" stroke-width="1" fill="none" fill-rule="evenodd">
        <g id="upper-wave">
            <path d="M1439.25342,101.089882 C1412.59168,105.134396 1386.1353,110.215486 1360.17664,116.288693 C1111.80081,174.508878 891.410738,280.29218 672.897987,264.452237 C456.704698,248.590065 281.220403,140.125239 75.1626846,144.129975 C49.7234899,144.648263 24.704698,146.653556 0,149.838158 L0,287 C35.6796875,286.148277 1411.40625,287 1440,287 L1440,101 C1439.83407,101.024501 1439.58521,101.054461 1439.25342,101.089882 Z" id="Fill-10-Copy" fill="#00768F"></path>
            <path d="M673.247036,285.210587 C891.873136,302.954175 1112.37752,184.45783 1360.88462,119.24074 C1386.85433,112.437655 1413.32442,106.74592 1440,102.215335 L1440,0 C1285.63218,3.43496158 1055.29155,187.46424 907.892985,196.821595 C724.976137,208.520909 515.966298,18.4132812 325.770777,51.9660803 C216.486736,71.2220476 108.348523,81.7379315 0,81.3827714 L0,156.820871 C24.7175129,153.254854 49.7492828,151.007254 75.2016734,150.427989 C281.366279,145.941963 456.941602,267.442098 673.247036,285.210587 Z" id="Fill-13-Copy" fill="url(#linearGradient-1)" opacity="0.378245908"></path>
        </g>
    </g>
</svg>