<?xml version="1.0" encoding="utf-8"?><svg xmlns="http://www.w3.org/2000/svg" xmlns:xlink="http://www.w3.org/1999/xlink"><symbol viewBox="0 0 35 35" id="icon-calendar" xmlns="http://www.w3.org/2000/svg"><g fill="none" fill-rule="evenodd"><circle fill="#033B47" cx="17.5" cy="17.5" r="17.5"/><path d="M15.393 20.284l-.285 1.667c-.064.381.09.76.404.986.176.126.385.195.59.195.158 0 .32-.04.468-.12l1.494-.784 1.494.785c.342.18.749.151 1.062-.076.313-.227.468-.605.403-.986l-.284-1.667 1.206-1.177c.277-.27.374-.666.255-1.033a.998.998 0 00-.813-.684l-1.67-.245-.746-1.516a1.012 1.012 0 00-.907-.565.997.997 0 00-.9.562l-.745 1.515-1.67.245a.998.998 0 00-.814.684c-.119.367-.022.763.255 1.033l1.203 1.181zm1.785-2.092l.886-1.796.886 1.796 1.98.288-1.433 1.4.338 1.974-1.771-.93-1.771.933.338-1.973-1.433-1.4 1.98-.292zM24.4 9.304h-1.728V7.288A.289.289 0 0022.384 7h-.576a.289.289 0 00-.288.288v2.016h-6.912V7.288A.289.289 0 0014.32 7h-.576a.289.289 0 00-.288.288v2.016h-1.728c-.954 0-1.728.774-1.728 1.728v12.672c0 .954.774 1.728 1.728 1.728H24.4c.954 0 1.728-.774 1.728-1.728V11.032c0-.954-.774-1.728-1.728-1.728zm.576 14.4c0 .317-.26.576-.576.576H11.728a.578.578 0 01-.576-.576v-9.792h13.824v9.792zm0-10.944H11.152v-1.728c0-.317.26-.576.576-.576H24.4c.317 0 .576.26.576.576v1.728z" fill="#FFF" fill-rule="nonzero"/></g></symbol><symbol viewBox="0 0 14 8" id="icon-chevron-down" xmlns="http://www.w3.org/2000/svg"><path d="M1.167.292c.232 0 .454.092.619.256L7 5.763 12.214.548a.875.875 0 011.238 1.238L7.62 7.619a.875.875 0 01-1.238 0L.548 1.786A.875.875 0 011.167.292z" fill="#00768F"/></symbol><symbol viewBox="0 0 22 22" id="icon-facebook" xmlns="http://www.w3.org/2000/svg"><path d="M20.03.85H1.97A1.12 1.12 0 00.85 1.97v18.06c0 .619.501 1.12 1.12 1.12h9.73V13.3H9.058v-3.074H11.7v-2.26c0-2.622 1.603-4.05 3.941-4.05A22.47 22.47 0 0118 4.035v2.74h-1.61c-1.274 0-1.523.603-1.523 1.492v1.956h3.045l-.395 3.073H14.85v7.854h5.18a1.12 1.12 0 001.12-1.12V1.97A1.12 1.12 0 0020.03.85z" fill="currentColor" fill-rule="evenodd"/></symbol><symbol viewBox="0 0 35 35" id="icon-info" xmlns="http://www.w3.org/2000/svg"><g fill="none" fill-rule="evenodd"><circle cx="17.5" cy="17.5" r="16.5" stroke="#00768F" stroke-width="2"/><path d="M15.504 20.7h.505v-3.644h-.505A.504.504 0 0115 16.55v-1.204c0-.279.226-.505.504-.505h2.825c.279 0 .504.226.504.505v5.352h.505c.278 0 .504.226.504.504v1.205a.504.504 0 01-.504.505h-3.834a.504.504 0 01-.504-.505v-1.205c0-.278.226-.504.504-.504zM17.421 10a1.816 1.816 0 100 3.632 1.816 1.816 0 000-3.632z" fill="#00768F" fill-rule="nonzero"/></g></symbol><symbol viewBox="0 0 22 22" id="icon-insta" xmlns="http://www.w3.org/2000/svg"><path d="M12.26.851c1.64.004 2.031.02 2.92.06 1.08.049 1.818.22 2.463.471.667.26 1.233.607 1.797 1.17.564.565.911 1.13 1.17 1.798.251.645.423 1.383.472 2.463.043.928.057 1.314.06 3.14v2.086c-.003 1.827-.017 2.213-.06 3.141-.049 1.08-.22 1.818-.471 2.463a4.974 4.974 0 01-1.17 1.797 4.974 4.974 0 01-1.798 1.17c-.645.251-1.383.423-2.463.472-.928.043-1.314.057-3.14.06H9.953c-1.827-.003-2.213-.017-3.141-.06-1.08-.049-1.818-.22-2.463-.471a4.974 4.974 0 01-1.797-1.17 4.974 4.974 0 01-1.17-1.798C1.131 16.998.96 16.26.91 15.18c-.04-.889-.056-1.28-.06-2.92V9.733c.004-1.64.02-2.031.06-2.92.049-1.08.22-1.818.471-2.463a4.974 4.974 0 011.17-1.797 4.974 4.974 0 011.798-1.17C4.995 1.131 5.733.96 6.813.91c.889-.04 1.28-.056 2.92-.06zm-.471 1.827h-1.585c-1.994.003-2.352.016-3.308.06-.989.044-1.526.21-1.884.349a3.143 3.143 0 00-1.166.759 3.143 3.143 0 00-.76 1.166c-.138.358-.304.895-.349 1.884-.043.956-.056 1.314-.059 3.308v1.585c.003 1.994.016 2.352.06 3.308.044.989.21 1.526.349 1.884.184.473.404.811.759 1.167.355.355.693.574 1.166.759.358.138.895.304 1.884.349.956.043 1.314.056 3.308.059h1.585c1.994-.003 2.353-.016 3.308-.06.989-.044 1.526-.21 1.884-.348a3.143 3.143 0 001.167-.76c.355-.355.574-.693.759-1.166.138-.358.304-.895.349-1.884.043-.956.056-1.314.059-3.308v-1.585c-.003-1.994-.016-2.352-.06-3.308-.044-.989-.21-1.526-.348-1.884a3.143 3.143 0 00-.76-1.166 3.143 3.143 0 00-1.166-.76c-.358-.138-.895-.304-1.884-.349-.956-.043-1.314-.056-3.308-.059zm-.792 3.108a5.21 5.21 0 110 10.421 5.21 5.21 0 010-10.421zm0 1.828a3.382 3.382 0 110 6.765 3.382 3.382 0 010-6.765zm5.416-3.251a1.218 1.218 0 110 2.435 1.218 1.218 0 010-2.435z" fill="currentColor" fill-rule="evenodd"/></symbol><symbol viewBox="0 0 35 35" id="icon-marker" xmlns="http://www.w3.org/2000/svg"><g fill="none" fill-rule="evenodd"><circle fill="#033B47" cx="17.5" cy="17.5" r="17.5"/><path d="M17.912 11.456a3.46 3.46 0 00-3.456 3.456 3.46 3.46 0 003.456 3.456 3.46 3.46 0 003.456-3.456 3.46 3.46 0 00-3.456-3.456zm0 5.76a2.307 2.307 0 01-2.304-2.304 2.307 2.307 0 012.304-2.304 2.307 2.307 0 012.304 2.304 2.307 2.307 0 01-2.304 2.304zm0-9.216A6.912 6.912 0 0011 14.912c0 2.787.97 3.565 6.202 11.148a.864.864 0 001.42 0c5.231-7.583 6.202-8.361 6.202-11.148A6.912 6.912 0 0017.912 8zm0 17.062c-5.015-7.252-5.76-7.828-5.76-10.15 0-1.539.6-2.985 1.687-4.073a5.722 5.722 0 014.073-1.687c1.539 0 2.985.6 4.073 1.687a5.722 5.722 0 011.687 4.073c0 2.322-.745 2.897-5.76 10.15z" fill="#FFF" fill-rule="nonzero"/></g></symbol><symbol viewBox="0 0 35 35" id="icon-marker-yellow" xmlns="http://www.w3.org/2000/svg"><g fill="none" fill-rule="evenodd"><circle fill="#F3E966" cx="17.5" cy="17.5" r="17.5"/><path d="M17.912 11.456a3.46 3.46 0 00-3.456 3.456 3.46 3.46 0 003.456 3.456 3.46 3.46 0 003.456-3.456 3.46 3.46 0 00-3.456-3.456zm0 5.76a2.307 2.307 0 01-2.304-2.304 2.307 2.307 0 012.304-2.304 2.307 2.307 0 012.304 2.304 2.307 2.307 0 01-2.304 2.304zm0-9.216A6.912 6.912 0 0011 14.912c0 2.787.97 3.565 6.202 11.148a.864.864 0 001.42 0c5.231-7.583 6.202-8.361 6.202-11.148A6.912 6.912 0 0017.912 8zm0 17.062c-5.015-7.252-5.76-7.828-5.76-10.15 0-1.539.6-2.985 1.687-4.073a5.722 5.722 0 014.073-1.687c1.539 0 2.985.6 4.073 1.687a5.722 5.722 0 011.687 4.073c0 2.322-.745 2.897-5.76 10.15z" fill="#033B47" fill-rule="nonzero"/></g></symbol><symbol viewBox="0 0 27 27" id="icon-telefoon" xmlns="http://www.w3.org/2000/svg"><path d="M17.69 16.44l-2.037 2.545a21.503 21.503 0 01-7.64-7.637L10.56 9.31a1.73 1.73 0 00.5-2.053L8.738 2.029a1.731 1.731 0 00-2.017-.973L2.3 2.202a1.741 1.741 0 00-1.284 1.923 25.679 25.679 0 0021.858 21.859c.874.12 1.7-.431 1.923-1.285l1.146-4.42a1.733 1.733 0 00-.973-2.017l-5.227-2.322a1.73 1.73 0 00-2.053.5z" stroke="#FFF" fill="none" stroke-linecap="round" stroke-linejoin="round"/></symbol><symbol viewBox="0 0 134 134" id="icon-video-play" xmlns="http://www.w3.org/2000/svg"><g fill="#FFF" fill-rule="evenodd"><path d="M50.802 100.231l53.042-33.23-53.042-33.232z"/><path d="M67 120c-29.224 0-53-23.775-53-53 0-29.224 23.776-53 53-53s53 23.776 53 53c0 29.225-23.776 53-53 53M67 0C30.056 0 0 30.056 0 67s30.056 67 67 67 67-30.056 67-67S103.944 0 67 0"/></g></symbol><symbol class="jsvg-inline--fa jfa-youtube jfa-w-18" viewBox="0 0 576 512" id="icon-youtube" xmlns="http://www.w3.org/2000/svg"><path fill="currentColor" d="M549.655 124.083c-6.281-23.65-24.787-42.276-48.284-48.597C458.781 64 288 64 288 64S117.22 64 74.629 75.486c-23.497 6.322-42.003 24.947-48.284 48.597-11.412 42.867-11.412 132.305-11.412 132.305s0 89.438 11.412 132.305c6.281 23.65 24.787 41.5 48.284 47.821C117.22 448 288 448 288 448s170.78 0 213.371-11.486c23.497-6.321 42.003-24.171 48.284-47.821 11.412-42.867 11.412-132.305 11.412-132.305s0-89.438-11.412-132.305zm-317.51 213.508V175.185l142.739 81.205-142.739 81.201z"/></symbol></svg>