<?xml version="1.0" encoding="UTF-8"?>
<svg width="18px" height="27px" viewBox="0 0 18 27" version="1.1" xmlns="http://www.w3.org/2000/svg" xmlns:xlink="http://www.w3.org/1999/xlink">
    <!-- Generator: Sketch 63.1 (92452) - https://sketch.com -->
    <title>icon-locker</title>
    <desc>Created with Sketch.</desc>
    <g id="UI-design" stroke="none" stroke-width="1" fill="none" fill-rule="evenodd">
        <g id="Homepage---Desktop" transform="translate(-200.000000, -2847.000000)" fill="#033B47" fill-rule="nonzero">
            <g id="icon-locker" transform="translate(200.000000, 2847.000000)">
                <path d="M16.4117647,10.8 L14.8235294,10.8 L14.8235294,5.94 C14.8235294,2.65942859 12.2162465,0 9,0 C5.78375352,0 3.17647059,2.65942859 3.17647059,5.94 L3.17647059,10.8 L1.58823529,10.8 C0.711077162,10.8 0,11.5252987 0,12.42 L0,25.38 C0,26.2747013 0.711077162,27 1.58823529,27 L16.4117647,27 C17.2889228,27 18,26.2747013 18,25.38 L18,12.42 C18,11.5252987 17.2889228,10.8 16.4117647,10.8 Z M4.23529412,5.94 C4.23529412,3.25589612 6.3685256,1.08 9,1.08 C11.6314744,1.08 13.7647059,3.25589612 13.7647059,5.94 L13.7647059,10.8 L4.23529412,10.8 L4.23529412,5.94 Z M16.9411765,25.38 C16.9411765,25.6782338 16.7041507,25.92 16.4117647,25.92 L1.58823529,25.92 C1.29584925,25.92 1.05882353,25.6782338 1.05882353,25.38 L1.05882353,12.42 C1.05882353,12.1217662 1.29584925,11.88 1.58823529,11.88 L16.4117647,11.88 C16.7041507,11.88 16.9411765,12.1217662 16.9411765,12.42 L16.9411765,25.38 Z M9,15.1199763 C8.7547221,15.1203964 8.51054331,15.1534352 8.27364706,15.21828 C7.41417616,15.458888 6.73508227,16.1311909 6.47364706,17.00028 C6.15533527,18.0297106 6.47185024,19.1535013 7.27729412,19.85364 L6.38047059,21.96936 C6.32672441,22.1339549 6.35378002,22.3148658 6.45319329,22.4556299 C6.55260656,22.5963941 6.7122703,22.6798683 6.88235294,22.68 L11.1176471,22.68 C11.2877297,22.6798683 11.4473934,22.5963941 11.5468067,22.4556299 C11.64622,22.3148658 11.6732756,22.1339549 11.6195294,21.96936 L10.7237647,19.85364 C11.5646449,19.12074 11.8676411,17.9304 11.4825207,16.8728188 C11.0974003,15.8152376 10.1060481,15.1152793 9,15.1199763 L9,15.1199763 Z M10.3828235,21.6 L7.61717647,21.6 L8.50552941,19.5102 L7.96976471,19.03716 C7.48133668,18.6135484 7.29119146,17.931533 7.488,17.30916 C7.64290392,16.7991519 8.0414117,16.4044736 8.54576471,16.26156 C8.69391786,16.2210311 8.84661142,16.2003374 9,16.2 C9.87667447,16.2011899 10.5870687,16.925792 10.5882353,17.82 C10.5871497,18.2897646 10.3829775,18.7351235 10.0302353,19.03716 L9.49447059,19.5102 L10.3828235,21.6 Z" id="budicon-lock"></path>
            </g>
        </g>
    </g>
</svg>