<?xml version="1.0" encoding="UTF-8"?>
<svg width="25px" height="23px" viewBox="0 0 25 23" version="1.1" xmlns="http://www.w3.org/2000/svg" xmlns:xlink="http://www.w3.org/1999/xlink">
    <!-- Generator: Sketch 63.1 (92452) - https://sketch.com -->
    <title>icon-multi-ruimte</title>
    <desc>Created with Sketch.</desc>
    <g id="UI-design" stroke="none" stroke-width="1" fill="none" fill-rule="evenodd">
        <g id="Homepage---Desktop" transform="translate(-577.000000, -2853.000000)" fill="#033B47" fill-rule="nonzero">
            <g id="icon-multi-ruimte" transform="translate(577.000000, 2853.000000)">
                <path d="M23.5,4 L18,4 L18,2.5 C18,1.11928813 16.8807119,0 15.5,0 L9.5,0 C8.11928813,0 7,1.11928813 7,2.5 L7,4 L1.5,4 C0.671572875,4 0,4.67157288 0,5.5 L0,21.5 C0,22.3284271 0.671572875,23 1.5,23 L23.5,23 C24.3284271,23 25,22.3284271 25,21.5 L25,5.5 C25,4.67157288 24.3284271,4 23.5,4 Z M8,2.5 C8,1.67157288 8.67157288,1 9.5,1 L15.5,1 C16.3284271,1 17,1.67157288 17,2.5 L17,4 L8,4 L8,2.5 Z M24,21.5 C24,21.7761424 23.7761424,22 23.5,22 L1.5,22 C1.22385763,22 1,21.7761424 1,21.5 L1,10.569 C3.84639136,12.124879 6.86756873,13.3370425 10,14.18 L10,16 C10,16.5522847 10.4477153,17 11,17 L14,17 C14.5522847,17 15,16.5522847 15,16 L15,14.18 C18.1324313,13.3370425 21.1536086,12.124879 24,10.569 L24,21.5 Z M11,14.371 C11.4960009,14.4520114 11.9974505,14.4951361 12.5,14.5 C13.0025495,14.4951361 13.5039991,14.4520114 14,14.371 L14,16 L11,16 L11,14.371 Z M24,9.428 L23.758,9.562 C23.687,9.6 16.612,13.5 12.5,13.5 C8.388,13.5 1.313,9.6 1.242,9.563 L1,9.428 L1,5.5 C1,5.22385763 1.22385763,5 1.5,5 L23.5,5 C23.7761424,5 24,5.22385763 24,5.5 L24,9.428 Z" id="budicon-office-bag-b"></path>
            </g>
        </g>
    </g>
</svg>