<?xml version="1.0" encoding="UTF-8"?>
<svg width="35px" height="35px" viewBox="0 0 35 35" version="1.1" xmlns="http://www.w3.org/2000/svg" xmlns:xlink="http://www.w3.org/1999/xlink">
    <!-- Generator: Sketch 63.1 (92452) - https://sketch.com -->
    <title>icon-info</title>
    <desc>Created with Sketch.</desc>
    <g id="UI-design" stroke="none" stroke-width="1" fill="none" fill-rule="evenodd">
        <g id="Homepage---Desktop" transform="translate(-284.000000, -1699.000000)">
            <g id="icon-info" transform="translate(284.000000, 1699.000000)">
                <g id="Group-5" stroke="#00768F" stroke-width="2">
                    <g id="Group-3">
                        <circle id="Oval" cx="17.5" cy="17.5" r="16.5"></circle>
                    </g>
                </g>
                <g id="info" transform="translate(15.000000, 10.000000)" fill="#00768F" fill-rule="nonzero">
                    <path d="M0.504400004,10.6990555 L1.00880001,10.6990555 L1.00880001,7.05582467 L0.504400004,7.05582467 C0.225819882,7.05582467 0,6.83000479 0,6.55142467 L0,5.34664004 C0,5.06805992 0.225819882,4.84224003 0.504400004,4.84224003 L3.32904002,4.84224003 C3.60762015,4.84224003 3.83344003,5.06805992 3.83344003,5.34664004 L3.83344003,10.6990555 L4.33784003,10.6990555 C4.61642015,10.6990555 4.84224003,10.9248753 4.84224003,11.2034555 L4.84224003,12.4082401 C4.84224003,12.6868202 4.61642015,12.9126401 4.33784003,12.9126401 L0.504400004,12.9126401 C0.225819882,12.9126401 0,12.6868202 0,12.4082401 L0,11.2034555 C0,10.9248753 0.225819882,10.6990555 0.504400004,10.6990555 Z M2.42112002,0 C1.41824671,0 0.605280004,0.812966706 0.605280004,1.81584001 C0.605280004,2.81871332 1.41824671,3.63168003 2.42112002,3.63168003 C3.42399332,3.63168003 4.23696003,2.81871332 4.23696003,1.81584001 C4.23696003,0.812966706 3.4239681,0 2.42112002,0 Z" id="Shape"></path>
                </g>
            </g>
        </g>
    </g>
</svg>