<?xml version="1.0" encoding="UTF-8"?>
<svg width="22px" height="22px" viewBox="0 0 22 22" version="1.1" xmlns="http://www.w3.org/2000/svg" xmlns:xlink="http://www.w3.org/1999/xlink">
    <!-- Generator: Sketch 63.1 (92452) - https://sketch.com -->
    <title>icon-facebook</title>
    <desc>Created with Sketch.</desc>
    <g id="UI-design" stroke="none" stroke-width="1" fill="none" fill-rule="evenodd">
        <g id="Homepage---Desktop" transform="translate(-289.000000, -3639.000000)" fill="currentColor">
            <g id="icon-facebook" transform="translate(289.000000, 3639.000000)">
                <path d="M20.0299998,0.850000173 L1.97000015,0.850000173 C1.35144124,0.850000173 0.850000173,1.35144124 0.850000173,1.97000015 L0.850000173,20.0299998 C0.850000173,20.6485588 1.35144124,21.1499998 1.97000015,21.1499998 L11.7,21.1499998 L11.7,13.2995 L9.05750003,13.2995 L9.05750003,10.2265 L11.7,10.2265 L11.7,7.96550005 C11.7,5.3440001 13.303,3.91600012 15.6409999,3.91600012 C16.4288757,3.91428191 17.2162966,3.95400344 17.9999999,4.03500012 L17.9999999,6.77550007 L16.3899999,6.77550007 C15.1159999,6.77550007 14.8674999,7.37750006 14.8674999,8.26650005 L14.8674999,10.223 L17.9124999,10.223 L17.5169999,13.296 L14.8500002,13.296 L14.8500002,21.1499998 L20.0299998,21.1499998 C20.6485588,21.1499998 21.1499998,20.6485588 21.1499998,20.0299998 L21.1499998,1.97000015 C21.1499998,1.35144124 20.6485588,0.850000173 20.0299998,0.850000173 Z" id="Icon"></path>
            </g>
        </g>
    </g>
</svg>
