<?xml version="1.0" encoding="UTF-8"?>
<svg width="27px" height="30px" viewBox="0 0 27 30" version="1.1" xmlns="http://www.w3.org/2000/svg" xmlns:xlink="http://www.w3.org/1999/xlink">
    <!-- Generator: Sketch 63.1 (92452) - https://sketch.com -->
    <title>icon-familiekleedkamer</title>
    <desc>Created with Sketch.</desc>
    <g id="UI-design" stroke="none" stroke-width="1" fill="none" fill-rule="evenodd">
        <g id="Homepage---Desktop" transform="translate(-955.000000, -2757.000000)" fill-rule="nonzero" stroke="#033B47">
            <g id="icon-familiekleedkamer" transform="translate(956.000000, 2758.000000)">
                <path d="M5.28846154,0 C7.14711538,0 8.65384615,1.567 8.65384615,3.5 C8.65384615,5.433 7.14711538,7 5.28846154,7 C3.42980769,7 1.92307692,5.433 1.92307692,3.5 C1.92307692,1.567 3.42980769,0 5.28846154,0 Z M10.5769231,17.6875 C10.5769231,18.412375 10.011899,19 9.31490385,19 L8.17307692,19 L8.17307692,26.6875 C8.17307692,27.412375 7.60805288,28 6.91105769,28 L3.66586538,28 C2.96887019,28 2.40384615,27.412375 2.40384615,26.6875 L2.40384615,19 L1.26201923,19 C0.565024038,19 4.09245287e-14,18.412375 4.09245287e-14,17.6875 L4.09245287e-14,11.125 C4.09245287e-14,9.67525 1.13004808,8.5 2.52403846,8.5 L3.08653846,8.5 C4.45138221,9.1526875 6.06670673,9.180875 7.49038462,8.5 L8.05288462,8.5 C9.446875,8.5 10.5769231,9.67525 10.5769231,11.125 L10.5769231,17.6875 Z" id="Shape"></path>
                <path d="M19.2307742,0 C21.0893104,0 22.5959459,1.567 22.5959459,3.5 C22.5959459,5.433 21.0893104,7 19.2307742,7 C17.3722379,7 15.8656025,5.433 15.8656025,3.5 C15.8656025,1.567 17.3722379,0 19.2307742,0 Z M24.0381623,21 L21.3340065,21 L21.3340065,26.6875 C21.3340065,27.412375 20.7690182,28 20.0720671,28 L18.3894813,28 C17.6925302,28 17.1275419,27.412375 17.1275419,26.6875 L17.1275419,21 L14.423386,21 C13.8068986,21 13.349115,20.4038125 13.4858251,19.778375 L15.8895192,9.5 C15.9890086,9.04471603 16.3781713,8.721625 16.8270801,8.721625 L17.5692807,8.721625 C18.6481967,9.09293894 19.8134118,9.09293894 20.8923277,8.721625 L21.6344683,8.721625 C22.0833771,8.721625 22.4725397,9.04471603 22.5720291,9.5 L24.9757232,19.778375 C25.1123732,20.403625 24.6548301,21 24.0381623,21 Z" id="Shape"></path>
            </g>
        </g>
    </g>
</svg>