<?xml version="1.0" encoding="UTF-8"?>
<svg width="35px" height="35px" viewBox="0 0 35 35" version="1.1" xmlns="http://www.w3.org/2000/svg" xmlns:xlink="http://www.w3.org/1999/xlink">
    <!-- Generator: Sketch 63.1 (92452) - https://sketch.com -->
    <title>icon-calendar</title>
    <desc>Created with Sketch.</desc>
    <g id="UI-design" stroke="none" stroke-width="1" fill="none" fill-rule="evenodd">
        <g id="Homepage---Desktop" transform="translate(-531.000000, -626.000000)">
            <g id="Group-6" transform="translate(486.000000, 602.000000)">
                <g id="icon-calendar" transform="translate(45.000000, 24.000000)">
                    <circle id="Oval" fill="#033B47" cx="17.5" cy="17.5" r="17.5"></circle>
                    <path d="M15.3927999,20.2839997 L15.1083999,21.9507997 C15.0435999,22.3323997 15.1983999,22.7103997 15.5115999,22.9371997 C15.6879999,23.0631997 15.8967999,23.1315997 16.1019999,23.1315997 C16.2603999,23.1315997 16.4223999,23.0919997 16.5699999,23.0127997 L18.0639998,22.2279997 L19.5579998,23.0127997 C19.8999998,23.1927997 20.3067998,23.1639997 20.6199998,22.9371997 C20.9331998,22.7103997 21.0879998,22.3323997 21.0231998,21.9507997 L20.7387998,20.2839997 L21.9447998,19.1067998 C22.2219998,18.8367998 22.3191998,18.4407998 22.2003998,18.0735998 C22.0815998,17.7063998 21.7683998,17.4435998 21.3867998,17.3895998 L19.7163998,17.1447998 L18.9711998,15.6291998 C18.7947998,15.2799998 18.4491998,15.0639998 18.0639998,15.0639998 C17.6787998,15.0639998 17.3331999,15.2799998 17.1639999,15.6255998 L16.4187999,17.1411998 L14.7483999,17.3859998 C14.3667999,17.4399998 14.0535999,17.7027998 13.9347999,18.0699998 C13.8159999,18.4371998 13.9131999,18.8331998 14.1903999,19.1031998 L15.3927999,20.2839997 Z M17.1783999,18.1923998 L18.0639998,16.3959998 L18.9495998,18.1923998 L20.9295998,18.4803998 L19.4967998,19.8807997 L19.8351998,21.8535997 L18.0639998,20.9247997 L16.2927999,21.8571997 L16.6311999,19.8843997 L15.1983999,18.4839998 L17.1783999,18.1923998 L17.1783999,18.1923998 Z M24.3999997,9.30399995 L22.6719997,9.30399995 L22.6719997,7.28799999 C22.6719997,7.1296 22.5423998,7 22.3839998,7 L21.8079998,7 C21.6495998,7 21.5199998,7.1296 21.5199998,7.28799999 L21.5199998,9.30399995 L14.6079999,9.30399995 L14.6079999,7.28799999 C14.6079999,7.1296 14.4783999,7 14.3199999,7 L13.7439999,7 C13.5855999,7 13.4559999,7.1296 13.4559999,7.28799999 L13.4559999,9.30399995 L11.728,9.30399995 C10.774,9.30399995 10,10.0779999 10,11.0319999 L10,23.7039997 C10,24.6579996 10.774,25.4319996 11.728,25.4319996 L24.3999997,25.4319996 C25.3539997,25.4319996 26.1279997,24.6579996 26.1279997,23.7039997 L26.1279997,11.0319999 C26.1279997,10.0779999 25.3539997,9.30399995 24.3999997,9.30399995 Z M24.9759997,23.7039997 C24.9759997,24.0207997 24.7167997,24.2799997 24.3999997,24.2799997 L11.728,24.2799997 C11.4112,24.2799997 11.152,24.0207997 11.152,23.7039997 L11.152,13.9119999 L24.9759997,13.9119999 L24.9759997,23.7039997 Z M24.9759997,12.7599999 L11.152,12.7599999 L11.152,11.0319999 C11.152,10.7151999 11.4112,10.4559999 11.728,10.4559999 L24.3999997,10.4559999 C24.7167997,10.4559999 24.9759997,10.7151999 24.9759997,11.0319999 L24.9759997,12.7599999 Z" fill="#FFFFFF" fill-rule="nonzero"></path>
                </g>
            </g>
        </g>
    </g>
</svg>