<?xml version="1.0" standalone="no"?>
<!DOCTYPE svg PUBLIC "-//W3C//DTD SVG 20010904//EN"
 "http://www.w3.org/TR/2001/REC-SVG-20010904/DTD/svg10.dtd">
<svg version="1.0" xmlns="http://www.w3.org/2000/svg"
 width="896.000000pt" height="896.000000pt" viewBox="0 0 896.000000 896.000000"
 preserveAspectRatio="xMidYMid meet">
<metadata>
Created by potrace 1.11, written by Peter Selinger 2001-2013
</metadata>
<g transform="translate(0.000000,896.000000) scale(0.100000,-0.100000)"
fill="#000000" stroke="none">
<path d="M2517 8954 c-1 -1 -38 -4 -82 -8 -44 -4 -93 -9 -110 -11 -16 -3 -49
-7 -72 -9 -22 -2 -45 -6 -50 -9 -5 -3 -31 -8 -58 -11 -27 -4 -102 -20 -165
-37 -63 -17 -122 -32 -130 -34 -71 -17 -391 -143 -401 -158 -3 -5 -8 -8 -10
-6 -2 1 -39 -15 -82 -35 l-77 -38 4 -2766 c2 -1522 6 -2787 9 -2812 4 -25 9
-65 12 -90 3 -25 8 -56 11 -70 3 -14 8 -38 10 -55 21 -144 77 -347 150 -544
49 -131 238 -512 264 -531 3 -3 17 -24 30 -48 13 -23 27 -42 32 -42 4 0 8 -5
8 -12 0 -13 147 -210 211 -283 62 -70 199 -214 228 -239 13 -12 33 -30 45 -41
12 -11 59 -52 106 -90 47 -38 87 -72 90 -75 8 -9 180 -130 185 -130 2 0 23
-13 47 -29 59 -39 122 -76 188 -109 30 -15 57 -29 60 -32 7 -8 125 -63 125
-59 1 2 12 -3 25 -12 32 -19 188 -82 260 -104 30 -9 64 -20 75 -25 21 -9 52
-18 82 -25 10 -2 45 -11 78 -20 61 -16 80 -21 125 -28 14 -2 34 -7 45 -10 11
-3 41 -9 67 -12 26 -3 78 -9 115 -14 38 -5 75 -9 83 -9 8 0 35 -3 60 -7 51 -7
434 -7 495 0 22 2 63 6 90 9 49 4 130 15 170 22 11 2 34 6 50 9 60 10 95 18
185 40 84 21 82 21 100 27 73 26 220 71 226 69 4 -2 10 1 13 6 3 5 29 17 56
27 58 22 325 151 404 196 64 37 245 154 283 184 14 12 41 32 59 46 18 14 37
30 43 35 6 6 27 22 46 37 60 46 199 177 290 275 76 82 119 133 192 228 29 39
56 72 61 73 4 2 7 7 7 12 0 4 27 48 60 98 121 182 272 484 320 637 7 22 16 45
20 50 6 10 28 80 35 114 2 9 8 28 14 44 6 15 8 27 5 27 -2 0 0 8 5 18 5 9 12
31 15 47 3 17 12 60 20 97 34 152 58 347 60 490 1 43 3 78 6 78 3 0 4 26 3 57
-8 212 -12 293 -17 333 -3 25 -8 70 -11 100 -3 30 -8 64 -10 75 -3 11 -7 36
-10 55 -2 19 -7 46 -10 60 -3 14 -10 43 -15 65 -11 50 -14 65 -35 140 -9 33
-18 67 -20 75 -7 30 -73 217 -89 253 -9 20 -23 54 -32 75 -60 140 -168 341
-244 454 -22 33 -40 62 -40 64 0 4 -122 167 -130 174 -3 3 -13 14 -21 26 -49
72 -275 307 -383 399 -33 28 -66 57 -75 65 -57 53 -378 270 -400 270 -5 0 -11
3 -13 8 -11 26 -461 230 -568 257 -3 1 -12 5 -20 8 -20 8 -191 56 -221 62 -13
3 -37 8 -54 12 -16 4 -32 7 -35 8 -17 4 -98 19 -115 21 -11 1 -20 3 -20 4 0 1
-16 3 -35 5 -19 2 -46 6 -60 9 -85 19 -548 27 -680 12 -30 -3 -80 -8 -110 -11
-72 -7 -88 -10 -96 -17 -8 -8 -9 -1056 -1 -1064 3 -3 16 1 29 10 12 8 34 17
48 20 14 3 59 15 100 26 110 30 184 39 315 40 99 0 161 -6 271 -29 29 -5 78
-20 110 -31 33 -12 66 -23 74 -25 45 -10 290 -143 290 -157 0 -4 5 -8 10 -8 6
0 16 -5 23 -10 7 -6 37 -29 67 -53 100 -77 179 -157 295 -298 32 -38 125 -176
125 -185 0 -4 6 -15 14 -23 18 -20 118 -219 144 -286 10 -27 22 -59 27 -70 4
-11 9 -24 11 -30 2 -5 13 -37 24 -70 19 -55 52 -175 65 -235 2 -14 9 -45 14
-70 5 -25 12 -69 16 -99 4 -30 8 -61 10 -70 15 -82 22 -425 11 -536 -13 -122
-15 -139 -22 -174 -3 -20 -7 -47 -9 -61 -9 -58 -13 -79 -34 -165 -13 -49 -24
-97 -26 -105 -6 -24 -61 -181 -85 -240 -26 -66 -123 -263 -150 -305 -11 -16
-27 -43 -36 -60 -28 -49 -159 -216 -221 -280 -73 -76 -260 -235 -277 -235 -2
0 -28 -16 -58 -35 -29 -19 -62 -38 -73 -41 -11 -4 -27 -12 -35 -19 -16 -13
-153 -72 -157 -67 -2 1 -17 -5 -33 -13 -17 -9 -30 -13 -30 -11 0 3 -17 -1 -38
-8 -21 -8 -58 -17 -83 -20 -24 -3 -66 -10 -94 -14 -87 -14 -293 -6 -385 14
-14 3 -36 8 -50 10 -98 18 -357 132 -445 197 -173 127 -153 110 -238 194 -65
63 -122 126 -167 183 -51 66 -150 215 -150 227 0 7 -4 13 -10 13 -5 0 -10 6
-10 13 0 6 -9 23 -20 37 -11 14 -20 31 -20 38 0 8 -9 26 -19 40 -10 15 -19 30
-20 34 -1 4 -11 29 -22 55 -43 100 -107 283 -124 358 -2 11 -9 38 -15 60 -6
22 -13 56 -15 75 -3 19 -8 46 -11 60 -3 14 -8 43 -10 65 -3 22 -7 51 -10 65
-14 73 -16 489 -18 3095 l-1 2840 -113 0 c-62 0 -114 0 -115 -1z"/>
</g>
</svg>
