<?xml version="1.0" standalone="no"?>
<!DOCTYPE svg PUBLIC "-//W3C//DTD SVG 20010904//EN"
 "http://www.w3.org/TR/2001/REC-SVG-20010904/DTD/svg10.dtd">
<svg version="1.0" xmlns="http://www.w3.org/2000/svg"
 width="700.000000pt" height="700.000000pt" viewBox="0 0 700.000000 700.000000"
 preserveAspectRatio="xMidYMid meet">
<metadata>
Created by potrace 1.11, written by Peter Selinger 2001-2013
</metadata>
<g transform="translate(0.000000,700.000000) scale(0.100000,-0.100000)"
fill="#000000" stroke="none">
<path d="M0 3500 l0 -3500 3500 0 3500 0 0 3500 0 3500 -3500 0 -3500 0 0
-3500z m3704 1770 c388 -28 706 -156 976 -393 406 -354 591 -829 566 -1448 -3
-85 -9 -183 -12 -217 l-7 -62 -1240 0 -1239 0 6 -30 c19 -99 140 -280 245
-367 82 -67 240 -147 346 -173 179 -45 431 -51 635 -15 170 31 422 128 532
206 25 18 32 19 43 8 15 -17 387 -641 383 -644 -254 -175 -435 -262 -685 -331
-290 -79 -720 -102 -1013 -54 -604 100 -1069 434 -1315 945 -136 284 -194 622
-166 970 38 457 196 811 499 1112 310 309 700 471 1192 496 30 2 69 4 85 5 17
1 93 -3 169 -8z"/>
<path d="M3388 4460 c-323 -52 -521 -219 -628 -535 -16 -44 -26 -83 -23 -87 2
-5 348 -8 769 -8 420 0 764 3 764 8 0 27 -43 179 -64 225 -83 189 -252 330
-456 381 -77 20 -282 29 -362 16z"/>
</g>
</svg>
