<svg class="icon--ic_phone-dims" viewBox="0 0 130 18" xmlns="http://www.w3.org/2000/svg"><path d="M40.043.192c2.055 0 3.775.739 5.16 2.216 1.386 1.478 2.078 3.405 2.078 5.783v9.108h-4.814V8.607c0-1.316-.306-2.32-.917-3.013-.612-.693-1.484-1.04-2.615-1.04-1.2 0-2.24.613-3.117 1.836.093.716.14 1.316.14 1.801v9.108h-4.815V8.607c0-1.316-.306-2.32-.918-3.013-.611-.693-1.495-1.04-2.649-1.04-1.016 0-1.997.624-2.943 1.871V17.3h-4.814V.711h4.814v1.004C25.718.7 27.079.192 28.719.192c2.17 0 3.936.785 5.299 2.354.9-.83 1.818-1.43 2.753-1.8.935-.37 2.026-.554 3.272-.554M58.89 13.524c1.2 0 2.182-.427 2.944-1.281.762-.854 1.143-1.927 1.143-3.22 0-1.27-.376-2.315-1.126-3.135-.75-.82-1.737-1.23-2.96-1.23-1.225 0-2.223.41-2.997 1.23-.773.82-1.16 1.865-1.16 3.134 0 1.294.387 2.367 1.16 3.22.774.855 1.772 1.282 2.996 1.282m0-13.16c2.516 0 4.617.82 6.303 2.46 1.685 1.616 2.528 3.682 2.528 6.198 0 2.54-.843 4.64-2.528 6.303-1.662 1.662-3.764 2.494-6.303 2.494-2.562 0-4.687-.832-6.372-2.494-1.685-1.662-2.528-3.763-2.528-6.303 0-2.516.843-4.582 2.528-6.199C54.226 1.185 56.35.364 58.89.364m26.375 16.935h4.814V.711h-4.814zm16.329-3.775c1.2 0 2.181-.427 2.943-1.281.762-.854 1.143-1.927 1.143-3.22 0-1.27-.376-2.315-1.126-3.135-.75-.82-1.737-1.23-2.96-1.23-1.224 0-2.223.41-2.996 1.23-.774.82-1.16 1.865-1.16 3.134 0 1.294.386 2.367 1.16 3.22.773.855 1.772 1.282 2.996 1.282m0-13.16c2.516 0 4.617.82 6.302 2.46 1.685 1.616 2.529 3.682 2.529 6.198 0 2.54-.844 4.64-2.529 6.303-1.662 1.662-3.763 2.494-6.302 2.494-2.563 0-4.688-.832-6.372-2.494-1.686-1.662-2.529-3.763-2.529-6.303 0-2.516.843-4.582 2.529-6.199C96.93 1.185 99.054.364 101.594.364M122.72.192c2.193 0 3.948.726 5.264 2.181 1.339 1.432 2.008 3.371 2.008 5.818v9.108h-4.813V8.607c0-1.316-.312-2.32-.935-3.013-.624-.693-1.502-1.04-2.632-1.04-1.27 0-2.482.693-3.636 2.078V17.3h-4.814V.711h4.814v1.177c1.407-1.13 2.99-1.696 4.744-1.696m-42.21 12.92l1.99 3.328c-1.202.969-2.942 1.378-4.328 1.378-2.008 0-3.618-.652-4.83-1.956-1.212-1.304-1.819-3.03-1.819-5.178V4.763h-1.866V.71h12.17v4.052H76.3v5.887c0 1.824.774 2.904 2.713 2.913a2.712 2.712 0 0 0 1.497-.45M8.721 4.3c-2.085 0-3.394 1.03-3.926 3.092H12.3c-.139-.973-.521-1.731-1.146-2.276-.626-.544-1.437-.816-2.433-.816m8.374 4.378c0 .95-.035 1.645-.104 2.085H4.864c.58 1.969 2.333 2.956 4.534 2.953 2.016-.003 3.323-.63 4.272-1.25 0 0 .799 1.323 1.926 3.214-1.887 1.394-3.947 2.032-6.573 2.032-2.618 0-4.866-.822-6.556-2.467C.822 13.6 0 11.527 0 9.025c0-2.524.81-4.598 2.432-6.22C4.077 1.162 6.22.34 8.86.34c2.363 0 4.32.776 5.872 2.328 1.575 1.575 2.363 3.579 2.363 6.01" fill="#070E0F"/></svg>