<svg width="24" height="24" viewBox="0 0 24 24" xmlns="http://www.w3.org/2000/svg"><title>Inputs / _/ Black / Hide - On</title><path d="M10.508 16.88l1.94-1.94a3.002 3.002 0 0 0 2.519-2.52l3.507-3.507c1.225.783 2.4 1.803 3.526 3.06-2.985 3.334-6.318 5-10 5-.504 0-1.001-.03-1.492-.093zm-3.424-.99C5.29 15.06 3.595 13.754 2 11.972c2.985-3.333 6.318-5 10-5 1.195 0 2.352.176 3.474.527L19 3.973l1.414 1.415-14 14L5 17.973l2.084-2.084zm6.478-6.478a3 3 0 0 0-4.124 4.124l4.124-4.124z" fill="#0065f2" fill-rule="evenodd"/></svg>