<?xml version="1.0" encoding="UTF-8"?>
<svg width="22px" height="22px" viewBox="0 0 22 22" version="1.1" xmlns="http://www.w3.org/2000/svg" xmlns:xlink="http://www.w3.org/1999/xlink">
    <!-- Generator: Sketch 63.1 (92452) - https://sketch.com -->
    <title>icon-insta</title>
    <desc>Created with Sketch.</desc>
    <g id="UI-design" stroke="none" stroke-width="1" fill="none" fill-rule="evenodd">
        <g id="Homepage---Desktop" transform="translate(-324.000000, -3639.000000)" fill="#00768F">
            <g id="icon-insta" transform="translate(324.000000, 3639.000000)">
                <path d="M12.2601633,0.850994394 C13.899132,0.855102628 14.2910358,0.870227345 15.1800383,0.910789943 C16.2600466,0.960049664 16.9976536,1.13159272 17.6430647,1.38244271 C18.3103063,1.64171076 18.8761688,1.98866354 19.4402993,2.5527538 C20.0043896,3.11688435 20.3513424,3.68274684 20.6106507,4.3499885 C20.8614604,4.9953996 21.0330035,5.73300653 21.0822632,6.81301484 C21.1245894,7.74066959 21.1392176,8.12706006 21.1425333,9.95390925 L21.1425333,12.0391693 C21.1392176,13.8659931 21.1245894,14.2523836 21.0822632,15.1800383 C21.0330035,16.2600466 20.8614604,16.9976536 20.6106507,17.6430647 C20.3513424,18.3103063 20.0043896,18.8761688 19.4402993,19.4402993 C18.8761688,20.0043896 18.3103063,20.3513424 17.6430647,20.6106507 C16.9976536,20.8614604 16.2600466,21.0330035 15.1800383,21.0822632 C14.2523836,21.1245894 13.8659931,21.1392176 12.0391693,21.1425333 L9.95390925,21.1425333 C8.12706006,21.1392176 7.74066959,21.1245894 6.81301484,21.0822632 C5.73300653,21.0330035 4.9953996,20.8614604 4.3499885,20.6106507 C3.68274684,20.3513424 3.11688435,20.0043896 2.5527538,19.4402993 C1.98866354,18.8761688 1.64171076,18.3103063 1.38244271,17.6430647 C1.13159272,16.9976536 0.960049664,16.2600466 0.910789943,15.1800383 C0.870227345,14.2910358 0.855102628,13.899132 0.850994394,12.2601633 L0.850994394,9.73291214 C0.855102628,8.09392116 0.870227345,7.70201731 0.910789943,6.81301484 C0.960049664,5.73300653 1.13159272,4.9953996 1.38244271,4.3499885 C1.64171076,3.68274684 1.98866354,3.11688435 2.5527538,2.5527538 C3.11688435,1.98866354 3.68274684,1.64171076 4.3499885,1.38244271 C4.9953996,1.13159272 5.73300653,0.960049664 6.81301484,0.910789943 C7.70201731,0.870227345 8.09392116,0.855102628 9.73291214,0.850994394 Z M11.7889951,2.67836848 L10.2040867,2.67836848 C8.20985206,2.68063713 7.85165213,2.69355916 6.89634956,2.73714547 C5.9070468,2.78225658 5.36978153,2.94755658 5.01223571,3.08651491 C4.53860933,3.27058435 4.20059822,3.49046073 3.84554962,3.84554962 C3.49046073,4.20059822 3.27058435,4.53860933 3.08651491,5.01223571 C2.94755658,5.36978153 2.78225658,5.9070468 2.73714547,6.89634956 C2.69355916,7.85165213 2.68063713,8.20985206 2.67836848,10.2040867 L2.67836848,11.7889951 C2.68063713,13.7832011 2.69355916,14.141401 2.73714547,15.0967036 C2.78225658,16.0860064 2.94755658,16.6232716 3.08651491,16.9808174 C3.27058435,17.4544438 3.49050101,17.7924549 3.84554962,18.1475035 C4.20059822,18.5025924 4.53860933,18.7224688 5.01223571,18.9065382 C5.36978153,19.0454966 5.9070468,19.2107966 6.89634956,19.2559077 C7.85154424,19.299494 8.20966839,19.312416 10.2040314,19.3146847 L11.7890517,19.3146847 C13.7833925,19.312416 14.1415449,19.299494 15.0967036,19.2559077 C16.0860064,19.2107966 16.6232716,19.0454966 16.9808174,18.9065382 C17.4544438,18.7224688 17.7924549,18.5025924 18.1475035,18.1475035 C18.5025924,17.7924549 18.7224688,17.4544438 18.9065382,16.9808174 C19.0454966,16.6232716 19.2107966,16.0860064 19.2559077,15.0967036 C19.299494,14.141401 19.312416,13.7832011 19.3146847,11.7889951 L19.3146847,10.2040867 C19.312416,8.20985206 19.299494,7.85165213 19.2559077,6.89634956 C19.2107966,5.9070468 19.0454966,5.36978153 18.9065382,5.01223571 C18.7224688,4.53860933 18.5025924,4.20059822 18.1475035,3.84554962 C17.7924549,3.49046073 17.4544438,3.27058435 16.9808174,3.08651491 C16.6232716,2.94755658 16.0860064,2.78225658 15.0967036,2.73714547 C14.141401,2.69355916 13.7832011,2.68063713 11.7889951,2.67836848 Z M10.9965467,5.78601208 C13.8742328,5.78601208 16.2070411,8.11882038 16.2070411,10.9965467 C16.2070411,13.8742328 13.8742328,16.2070411 10.9965467,16.2070411 C8.11882038,16.2070411 5.78601208,13.8742328 5.78601208,10.9965467 C5.78601208,8.11882038 8.11882038,5.78601208 10.9965467,5.78601208 Z M10.9965467,7.61426066 C12.8645092,7.61426066 14.3787925,9.12854397 14.3787925,10.9965467 C14.3787925,12.8645092 12.8645092,14.3787925 10.9965467,14.3787925 C9.12854397,14.3787925 7.61426066,12.8645092 7.61426066,10.9965467 C7.61426066,9.12854397 9.12854397,7.61426066 10.9965467,7.61426066 Z M16.4129008,4.36251488 C17.0853786,4.36251488 17.6305383,4.9076746 17.6305383,5.58015236 C17.6305383,6.25263013 17.0853786,6.79774957 16.4129008,6.79774957 C15.7404633,6.79774957 15.1953036,6.25263013 15.1953036,5.58015236 C15.1953036,4.9076746 15.7404633,4.36251488 16.4129008,4.36251488 Z" id="Icon"></path>
            </g>
        </g>
    </g>
</svg>