<?xml version="1.0" encoding="UTF-8"?>
<svg width="35px" height="35px" viewBox="0 0 35 35" version="1.1" xmlns="http://www.w3.org/2000/svg" xmlns:xlink="http://www.w3.org/1999/xlink">
    <!-- Generator: Sketch 63.1 (92452) - https://sketch.com -->
    <title>icon-marker-yellow</title>
    <desc>Created with Sketch.</desc>
    <g id="UI-design" stroke="none" stroke-width="1" fill="none" fill-rule="evenodd">
        <g id="Homepage---Desktop" transform="translate(-862.000000, -2137.000000)">
            <g id="icon-marker-yellow" transform="translate(862.000000, 2137.000000)">
                <circle id="Oval-Copy" fill="#F3E966" cx="17.5" cy="17.5" r="17.5"></circle>
                <path d="M17.9119999,11.4559999 C16.0063399,11.4559999 14.4559999,13.0063399 14.4559999,14.9119999 C14.4559999,16.8176598 16.0063399,18.3679998 17.9119999,18.3679998 C19.8176598,18.3679998 21.3679998,16.8176598 21.3679998,14.9119999 C21.3679998,13.0063399 19.8176598,11.4559999 17.9119999,11.4559999 Z M17.9119999,17.2159998 C16.6415599,17.2159998 15.6079999,16.1824398 15.6079999,14.9119999 C15.6079999,13.6415599 16.6415599,12.6079999 17.9119999,12.6079999 C19.1824398,12.6079999 20.2159998,13.6415599 20.2159998,14.9119999 C20.2159998,16.1824398 19.1824398,17.2159998 17.9119999,17.2159998 Z M17.9119999,8 C14.0945959,8 11,11.0945959 11,14.9119999 C11,17.6988678 11.97092,18.4771158 17.2016479,26.0601196 C17.5448719,26.5559116 18.2790919,26.5559836 18.6223878,26.0601196 C23.8530797,18.4771158 24.8239997,17.6988678 24.8239997,14.9119999 C24.8239997,11.0945959 21.7294038,8 17.9119999,8 Z M17.9119999,25.0615157 C12.89738,17.8095678 12.152,17.2337838 12.152,14.9119999 C12.152,13.3734319 12.751148,11.9269879 13.8390679,10.8390679 C14.9269879,9.75114797 16.3734319,9.15199998 17.9119999,9.15199998 C19.4505678,9.15199998 20.8970118,9.75114797 21.9849318,10.8390679 C23.0728518,11.9269879 23.6719997,13.3734319 23.6719997,14.9119999 C23.6719997,17.2336398 22.9270878,17.8089198 17.9119999,25.0615157 Z" id="Shape" fill="#033B47" fill-rule="nonzero"></path>
            </g>
        </g>
    </g>
</svg>