<?xml version="1.0" encoding="UTF-8"?>
<svg width="28px" height="26px" viewBox="0 0 28 26" version="1.1" xmlns="http://www.w3.org/2000/svg" xmlns:xlink="http://www.w3.org/1999/xlink">
    <!-- Generator: Sketch 63.1 (92452) - https://sketch.com -->
    <title>icon-peuterbad</title>
    <desc>Created with Sketch.</desc>
    <g id="UI-design" stroke="none" stroke-width="1" fill="none" fill-rule="evenodd">
        <g id="Homepage---Desktop" transform="translate(-956.000000, -2664.000000)">
            <g id="icon-peuterbad" transform="translate(956.000000, 2665.000000)">
                <g id="Group-7">
                    <path d="M26.8518519,6.05490741 C24.5861111,6.05490741 22.7037037,7.6937963 22.3074074,9.84657407 L17.4083333,10.5965741 L16.6481481,6.79935185 C16.562037,6.36694444 16.1824074,6.05490741 15.7407407,6.05490741 L0.925925926,6.05490741 C0.413888889,6.05490741 0,6.4687963 0,6.98083333 L0,23.6475 C0,24.159537 0.413888889,24.5734259 0.925925926,24.5734259 L18.5185185,24.5734259 C18.7944444,24.5734259 19.0546296,24.4502778 19.2314815,24.2391667 C19.4074074,24.0271296 19.4796296,23.7475 19.4277778,23.4762037 L18.5259259,16.8086111 L23.2287037,13.5308333 C24.0777778,14.6086111 25.3777778,15.3141667 26.8518519,15.3141667 C27.3638889,15.3141667 27.7777778,14.9002778 27.7777778,14.3882407 L27.7777778,6.98083333 C27.7777778,6.4687963 27.3638889,6.05490741 26.8518519,6.05490741 M15.7407407,6.98083333 L16.5,10.7789815 L16.6740741,11.6456481 L17.5481481,11.5123148 L22.4472222,10.7613889 L23.0981481,10.6623148 L23.2175926,10.0132407 C23.5416667,8.25675926 25.0694444,6.98083333 26.8518519,6.98083333 L26.8518519,14.3882407 C25.7268519,14.3882407 24.6722222,13.8678704 23.9564815,12.9586111 L23.4157407,12.2725 L22.7,12.7715741 L17.9962963,16.0493519 L17.5324074,16.3725 L17.6083333,16.9326852 L18.5101852,23.6002778 L18.5138889,23.6234259 L18.5185185,23.6475 L0.925925926,23.6475 L0.925925926,6.98083333 L15.7407407,6.98083333" id="Fill-3" fill="#033B47"></path>
                    <path d="M3.24166667,6.05490741 C3.18888889,2.32712963 4.79444444,0.463240741 8.05925926,0.463240741 C11.3240741,0.463240741 12.9583333,2.32712963 12.962963,6.05490741" id="Stroke-5" stroke="#033B47"></path>
                </g>
                <line x1="22.5" y1="10.5" x2="23.5" y2="13.5" id="Line" stroke="#033B47" stroke-linecap="square"></line>
                <line x1="16.9072266" y1="10.5" x2="18.5" y2="17.5" id="Line-2" stroke="#033B47" stroke-linecap="square"></line>
            </g>
        </g>
    </g>
</svg>