<?xml version="1.0" encoding="UTF-8"?>
<svg width="31px" height="32px" viewBox="0 0 31 32" version="1.1" xmlns="http://www.w3.org/2000/svg" xmlns:xlink="http://www.w3.org/1999/xlink">
    <!-- Generator: Sketch 63.1 (92452) - https://sketch.com -->
    <title>icon-wedstrijdbad</title>
    <desc>Created with Sketch.</desc>
    <g id="UI-design" stroke="none" stroke-width="1" fill="none" fill-rule="evenodd">
        <g id="Homepage---Desktop" transform="translate(-194.000000, -2665.000000)" fill-rule="nonzero" stroke="#033B47">
            <g id="icon-wedstrijdbad" transform="translate(194.000000, 2665.000000)">
                <path d="M15.7101519,19.8152947 C14.4596528,21.0723282 12.7899938,21.7783876 11.0478763,21.7783876 C9.32243925,21.7783876 7.66412832,21.0831265 5.81096877,19.8180436 C4.67916675,20.9578201 3.17125873,21.6780429 1.22316828,22.1674609 L1.60888948,25.0015813 L15.681108,31.4544844 C16.6578293,31.0562469 21.2507339,28.9291609 25.0522588,27.1148916 C26.623366,26.3650842 28.0597651,25.6677484 29.0531757,25.1649629 C29.4107223,24.9840013 29.7094215,24.828971 30.1272458,24.5777858 L29.7444329,21.7650347 C28.3164192,21.6728199 26.9062896,21.1033202 25.2918818,20.1197676 C24.0153041,21.2451908 22.3820833,21.8367268 20.7072994,21.7737616 C19.0641086,21.7119842 17.5005628,21.0213438 15.7101519,19.8152947 Z M14.5993136,0.562601258 C14.3781155,0.476015544 14.1411046,0.482277117 13.935789,0.562764457 C13.7372973,0.640576694 13.5674405,0.788512543 13.4758879,0.992445052 L10.7216158,6.81894696 C10.6644759,6.99024288 10.6582418,7.1706044 10.6993564,7.34097237 C10.7424883,7.5196992 10.8376115,7.68709246 10.9791351,7.82270138 L14.7956284,11.4772102 L8.5939616,17.7302687 C9.41080589,18.335457 10.4206517,18.6685288 11.4674274,18.6666675 C12.77282,18.6643307 14.0189318,18.1413265 14.9030999,17.2204224 C15.3964448,16.7086102 16.0889939,16.4159151 16.8156796,16.4159151 C17.5423654,16.4159151 18.2349145,16.7086102 18.7275731,17.2197091 C19.4041242,17.9272403 20.298835,18.4023337 21.2764484,18.5802885 L22.8474234,16.3225927 L13.0410837,6.92418429 L15.1021182,1.49143071 C15.1505664,1.3069885 15.1251523,1.11764498 15.0417845,0.955335347 C14.9530278,0.782534095 14.7991982,0.640843989 14.5993136,0.562601258 Z M23.9166667,7.16666667 C23.2493226,7.16666667 22.6451559,7.4371613 22.2078253,7.87449195 C21.7704946,8.31182259 21.5,8.91598926 21.5,9.58333333 C21.5,10.2506774 21.7704946,10.8548441 22.2078253,11.2921747 C22.6451559,11.7295054 23.2493226,12 23.9166667,12 C24.5840107,12 25.1881774,11.7295054 25.6255081,11.2921747 C26.0628387,10.8548441 26.3333333,10.2506774 26.3333333,9.58333333 C26.3333333,8.91598926 26.0628387,8.31182259 25.6255081,7.87449195 C25.1881774,7.4371613 24.5840107,7.16666667 23.9166667,7.16666667 Z" id="Combined-Shape"></path>
            </g>
        </g>
    </g>
</svg>