<?xml version="1.0" encoding="UTF-8"?>
<svg width="23px" height="16px" viewBox="0 0 23 16" version="1.1" xmlns="http://www.w3.org/2000/svg" xmlns:xlink="http://www.w3.org/1999/xlink">
    <!-- Generator: Sketch 63.1 (92452) - https://sketch.com -->
    <title>icon-wifi</title>
    <desc>Created with Sketch.</desc>
    <g id="UI-design" stroke="none" stroke-width="1" fill="none" fill-rule="evenodd">
        <g id="Homepage---Desktop" transform="translate(-957.000000, -2943.000000)" fill="#033B47" fill-rule="nonzero">
            <g id="icon-wifi" transform="translate(957.000000, 2943.000000)">
                <path d="M11.5,16 C10.3811176,16 9.47058824,15.1026667 9.47058824,14 C9.47058824,12.8973333 10.3811176,12 11.5,12 C12.6188824,12 13.5294118,12.8973333 13.5294118,14 C13.5294118,15.1026667 12.6188824,16 11.5,16 Z M11.5,13.3333333 C11.1263956,13.3333333 10.8235294,13.6318102 10.8235294,14 C10.8235294,14.3681898 11.1263956,14.6666667 11.5,14.6666667 C11.8736044,14.6666667 12.1764706,14.3681898 12.1764706,14 C12.1764706,13.6318102 11.8736044,13.3333333 11.5,13.3333333 Z" id="Shape"></path>
                <path d="M6.83641176,11.9573335 C6.5933526,11.9572916 6.369,11.8287448 6.24871027,11.6205993 C6.12842053,11.4124539 6.13068688,11.1567099 6.25464706,10.9506667 C7.35098973,9.12357624 9.34478246,8.00277399 11.4986471,8.00277399 C13.6525117,8.00277399 15.6463044,9.12357624 16.7426471,10.9506667 C16.865662,11.1557371 16.8683199,11.4099066 16.7496194,11.6174319 C16.630919,11.8249573 16.4088936,11.9543104 16.1671782,11.9567653 C15.9254628,11.9592201 15.7007796,11.8344038 15.5777647,11.6293333 C14.7281176,10.2133333 13.1654706,9.33333333 11.4972941,9.33333333 C9.82911765,9.33333333 8.26647059,10.2133333 7.41682353,11.6293333 C7.29510794,11.8327215 7.07330355,11.9574851 6.83370588,11.9573335 L6.83641176,11.9573335 Z" id="Path"></path>
                <path d="M19.0859412,9.07734367 C18.8725913,9.07754322 18.671592,8.97874711 18.5434118,8.81066667 C16.8644118,6.60133333 14.2965294,5.33333333 11.5,5.33333333 C8.70347059,5.33333333 6.13558824,6.6 4.45658824,8.81066667 C4.31158044,9.00120832 4.07444005,9.1010365 3.83449557,9.0725469 C3.59455108,9.04405729 3.38825577,8.89157815 3.29331909,8.67254689 C3.1983824,8.45351563 3.22922749,8.20120831 3.37423529,8.01066667 C4.30510369,6.78878092 5.50504246,5.79086329 6.88376471,5.092 C8.32194118,4.36666667 9.87511765,3.99866667 11.5,3.99866667 C13.1248824,3.99866667 14.6794118,4.36666667 16.1162353,5.092 C17.4955365,5.79000704 18.6956554,6.78807446 19.6257647,8.01066667 C19.7793562,8.21248633 19.8041961,8.48245924 19.6899453,8.70821366 C19.5756945,8.93396809 19.3419256,9.07682916 19.0859412,9.07734367 L19.0859412,9.07734367 Z" id="Path"></path>
                <path d="M21.9758235,6.228 C21.773003,6.22813328 21.5808235,6.13857473 21.4522353,5.984 C18.998,3.028 15.3707647,1.33333333 11.5,1.33333333 C7.62923529,1.33333333 4.002,3.028 1.54776471,5.984 C1.31089952,6.26897893 0.884463915,6.31076569 0.595294118,6.07733333 C0.30612432,5.84390098 0.263723052,5.4236456 0.500588235,5.13866667 C3.21323529,1.872 7.222,-0.00133333333 11.5,-0.00133333333 C15.778,-0.00133333333 19.7867647,1.872 22.4994118,5.13866667 C22.6639346,5.33813707 22.6977211,5.61294756 22.5862969,5.84536794 C22.4748727,6.07778831 22.2380078,6.22658004 21.9771765,6.228 L21.9758235,6.228 Z" id="Path"></path>
            </g>
        </g>
    </g>
</svg>