<?xml version="1.0" encoding="UTF-8"?>
<svg width="9px" height="25px" viewBox="0 0 9 25" version="1.1" xmlns="http://www.w3.org/2000/svg" xmlns:xlink="http://www.w3.org/1999/xlink">
    <!-- Generator: Sketch 63.1 (92452) - https://sketch.com -->
    <title>icon-vergaderruimte</title>
    <desc>Created with Sketch.</desc>
    <g id="UI-design" stroke="none" stroke-width="1" fill="none" fill-rule="evenodd">
        <g id="Homepage---Desktop" transform="translate(-964.000000, -2852.000000)" fill="#033B47" fill-rule="nonzero">
            <g id="icon-vergaderruimte" transform="translate(964.000000, 2852.000000)">
                <path d="M8.988,20.217 L7.122,5.938 C7.68587963,5.80733221 8.12232777,5.36073411 8.24,4.794 L8.74,2.317 C8.89294036,1.54843737 8.42850561,0.791661417 7.674,0.58 C6.64417051,0.255692048 5.57797052,0.0608602932 4.5,-1.77635684e-15 C3.42202948,0.0608602932 2.35582949,0.255692048 1.326,0.58 C0.573104862,0.793341607 0.110716128,1.54962149 0.264,2.317 L0.764,4.794 C0.881046797,5.35963898 1.31567032,5.80596691 1.878,5.938 L0.012,20.217 C-0.0501627952,20.706408 0.132299139,21.1950919 0.5,21.524 L4.5,25 L8.5,21.524 C8.86770086,21.1950919 9.0501628,20.706408 8.988,20.217 Z M6.6,9.679 L1.884,13.579 L2.878,6 L6.122,6 L6.6,9.679 Z M1.7,15.035 L6.759,10.85 L6.953,12.337 L1.444,16.973 L1.7,15.035 Z M1.244,2.121 C1.19249341,1.86427522 1.3477714,1.61129422 1.6,1.541 C2.54027909,1.24026059 3.51453294,1.05851185 4.5,1 C5.48546834,1.0585014 6.45972348,1.24025038 7.4,1.541 C7.65349402,1.61046631 7.80992588,1.86434036 7.758,2.122 L7.26,4.6 C7.21247314,4.83283313 7.00763431,5.0000485 6.77,5 L2.23,5 C1.99236569,5.0000485 1.78752686,4.83283313 1.74,4.6 L1.244,2.121 Z M7.844,20.769 L4.5,23.675 L1.168,20.775 C1.04583395,20.6680698 0.983191583,20.5084809 1,20.347 L1.265,18.319 L1.319,18.383 L7.1,13.515 L8,20.341 C8.01912135,20.501453 7.95952143,20.6612553 7.84,20.77 L7.844,20.769 Z" id="budicon-tie"></path>
            </g>
        </g>
    </g>
</svg>