<?xml version="1.0" encoding="UTF-8"?>
<svg width="25px" height="25px" viewBox="0 0 25 25" version="1.1" xmlns="http://www.w3.org/2000/svg" xmlns:xlink="http://www.w3.org/1999/xlink">
    <!-- Generator: Sketch 63.1 (92452) - https://sketch.com -->
    <title>icon-beweegbarebodem</title>
    <desc>Created with Sketch.</desc>
    <g id="UI-design" stroke="none" stroke-width="1" fill="none" fill-rule="evenodd">
        <g id="Homepage---Desktop" transform="translate(-197.000000, -2759.000000)" fill="#033B47" fill-rule="nonzero">
            <g id="icon-beweegbarebodem" transform="translate(197.000000, 2759.000000)">
                <path d="M13.883,8.18 L7.768,0.36 C7.57800483,0.13216593 7.29665895,0.000449841908 7,0.000449841908 C6.70334105,0.000449841908 6.42199517,0.13216593 6.232,0.36 L0.117,8.18 C-0.00701529213,8.32888989 -0.0338370963,8.53602885 0.0481653076,8.71159535 C0.130167712,8.88716185 0.306227504,8.99954026 0.5,9 L4,9 L4,23.5 C4,24.3284271 4.67157288,25 5.5,25 L8.5,25 C9.32842712,25 10,24.3284271 10,23.5 L10,9 L13.499,9 C13.6929533,8.9999273 13.8693671,8.88769477 13.9516216,8.71204718 C14.0338761,8.5363996 14.0071301,8.32902882 13.883,8.18 Z M10,8 L9,8 L9,23.5 C9,23.7761424 8.77614237,24 8.5,24 L5.5,24 C5.22385763,24 5,23.7761424 5,23.5 L5,8 L1.527,8 L6.998,1 L7,1 L12.475,8 L10,8 Z" id="Shape"></path>
                <path d="M24.499,16 L21,16 L21,1.5 C21,0.671572875 20.3284271,0 19.5,0 L16.5,0 C15.6715729,0 15,0.671572875 15,1.5 L15,16 L11.501,16 C11.3070467,16.0000727 11.1306329,16.1123052 11.0483784,16.2879528 C10.9661239,16.4636004 10.9928699,16.6709712 11.117,16.82 L17.232,24.64 C17.4219952,24.8678341 17.7033411,24.9995502 18,24.9995502 C18.2966589,24.9995502 18.5780048,24.8678341 18.768,24.64 L24.883,16.82 C25.0070153,16.6711101 25.0338371,16.4639712 24.9518347,16.2884046 C24.8698323,16.1128381 24.6937725,16.0004597 24.5,16 L24.499,16 Z M18.019,24.024 L12.526,17 L16,17 L16,1.5 C16,1.22385763 16.2238576,1 16.5,1 L19.5,1 C19.7761424,1 20,1.22385763 20,1.5 L20,17 L23.477,17 L18.019,24.024 Z" id="Shape"></path>
            </g>
        </g>
    </g>
</svg>