<?xml version="1.0" encoding="UTF-8"?>
<svg width="20px" height="25px" viewBox="0 0 20 25" version="1.1" xmlns="http://www.w3.org/2000/svg" xmlns:xlink="http://www.w3.org/1999/xlink">
    <!-- Generator: Sketch 63.1 (92452) - https://sketch.com -->
    <title>icon-praktijkruimte</title>
    <desc>Created with Sketch.</desc>
    <g id="UI-design" stroke="none" stroke-width="1" fill="none" fill-rule="evenodd">
        <g id="Homepage---Desktop" transform="translate(-580.000000, -2758.000000)" fill="#033B47" fill-rule="nonzero">
            <g id="icon-praktijkruimte" transform="translate(580.000000, 2758.000000)">
                <path d="M19.5,24 L18,24 L18,1.5 C17.9988982,0.672029668 17.3279703,0.00110175839 16.5,0 L3.5,0 C2.67202967,0.00110175839 2.00110176,0.672029668 2,1.5 L2,24 L0.5,24 C0.223857625,24 0,24.2238576 0,24.5 C0,24.7761424 0.223857625,25 0.5,25 L19.5,25 C19.7761424,25 20,24.7761424 20,24.5 C20,24.2238576 19.7761424,24 19.5,24 Z M3,24 L3,1.5 C3.00055018,1.22408584 3.22408584,1.00055018 3.5,1 L16.5,1 C16.7759142,1.00055018 16.9994498,1.22408584 17,1.5 L17,24 L3,24 Z" id="Shape"></path>
                <circle id="Oval" cx="14" cy="13" r="1"></circle>
            </g>
        </g>
    </g>
</svg>