<?xml version="1.0" encoding="UTF-8"?>
<svg width="14px" height="8px" viewBox="0 0 14 8" version="1.1" xmlns="http://www.w3.org/2000/svg" xmlns:xlink="http://www.w3.org/1999/xlink">
    <!-- Generator: Sketch 63.1 (92452) - https://sketch.com -->
    <title>icon-chevron-down</title>
    <desc>Created with Sketch.</desc>
    <g id="UI-design" stroke="none" stroke-width="1" fill="none" fill-rule="evenodd">
        <g id="Homepage---Desktop" transform="translate(-1142.000000, -3983.000000)" fill="#00768F" fill-rule="nonzero">
            <g id="Group-13" transform="translate(260.000000, 3957.000000)">
                <g id="icon-chevron-down" transform="translate(889.000000, 30.277778) scale(-1, 1) translate(-889.000000, -30.277778) translate(882.000000, 26.000000)">
                    <path d="M12.8333333,0.291666667 C12.6012287,0.291561506 12.378592,0.383679779 12.2144167,0.54775 L7,5.76275 L1.78558333,0.54775 C1.44376509,0.205931783 0.889568249,0.205931792 0.547750021,0.547750021 C0.205931792,0.889568249 0.205931783,1.44376509 0.54775,1.78558333 L6.38108333,7.61891667 C6.54519376,7.7831323 6.76783841,7.87539653 7,7.87539653 C7.23216159,7.87539653 7.45480624,7.7831323 7.61891667,7.61891667 L13.45225,1.78558333 C13.7026656,1.53532821 13.7776046,1.15883491 13.6421023,0.831764941 C13.5066001,0.504694976 13.187361,0.291506193 12.8333333,0.291666667 Z" id="Path"></path>
                </g>
            </g>
        </g>
    </g>
</svg>