<?xml version="1.0" encoding="UTF-8"?>
<svg width="17px" height="28px" viewBox="0 0 17 28" version="1.1" xmlns="http://www.w3.org/2000/svg" xmlns:xlink="http://www.w3.org/1999/xlink">
    <!-- Generator: Sketch 63.1 (92452) - https://sketch.com -->
    <title>icon-eten</title>
    <desc>Created with Sketch.</desc>
    <g id="UI-design" stroke="none" stroke-width="1" fill="none" fill-rule="evenodd">
        <g id="Homepage---Desktop" transform="translate(-201.000000, -2941.000000)" fill="#033B47" fill-rule="nonzero">
            <g id="icon-eten" transform="translate(201.000000, 2941.000000)">
                <path d="M7.28,0 C6.97072054,0 6.72,0.25072054 6.72,0.56 L6.72,7.84 L4.48,7.84 L4.48,0.56 C4.48,0.25072054 4.22927946,0 3.92,0 C3.61072054,0 3.36,0.25072054 3.36,0.56 L3.36,7.84 L1.12,7.84 L1.12,0.56 C1.12,0.25072054 0.86927946,0 0.56,0 C0.25072054,0 0,0.25072054 0,0.56 L0,10.08 C0,11.3171178 1.00288216,12.32 2.24,12.32 L3.36,12.32 L3.36,16.90304 C2.69031927,17.1383829 2.24160549,17.7701719 2.24,18.48 L2.24,26.32 C2.24,27.2478384 2.99216162,28 3.92,28 C4.84783838,28 5.6,27.2478384 5.6,26.32 L5.6,18.48 C5.59839451,17.7701719 5.14968073,17.1383829 4.48,16.90304 L4.48,12.32 L5.6,12.32 C6.83711784,12.32 7.84,11.3171178 7.84,10.08 L7.84,0.56 C7.84,0.25072054 7.58927946,0 7.28,0 Z M4.48,26.32 C4.48,26.6292795 4.22927946,26.88 3.92,26.88 C3.61072054,26.88 3.36,26.6292795 3.36,26.32 L3.36,18.48 C3.36,18.1707205 3.61072054,17.92 3.92,17.92 C4.22927946,17.92 4.48,18.1707205 4.48,18.48 L4.48,26.32 Z M6.72,10.08 C6.71938262,10.698303 6.21830301,11.1993826 5.6,11.2 L2.24,11.2 C1.62169699,11.1993826 1.12061738,10.698303 1.12,10.08 L1.12,8.96 L6.72,8.96 L6.72,10.08 Z" id="Shape"></path>
                <path d="M12.88,16.8 C12.6888024,16.8019455 12.4993677,16.8368015 12.32,16.90304 L12.32,14.56 L16.8,14.56 C16.9352447,9.78702996 15.915092,5.05206113 13.8264,0.75824 C13.589446,0.293245162 13.1118082,0.000345895724 12.58992,0 L12.5888,0 C11.8217869,0 11.2,0.621786939 11.2,1.3888 L11.2,26.32 C11.2,27.2478384 11.9521616,28 12.88,28 C13.8078384,28 14.56,27.2478384 14.56,26.32 L14.56,18.48 C14.56,17.5521616 13.8078384,16.8 12.88,16.8 L12.88,16.8 Z M12.3199957,1.3888 C12.3192942,1.26369488 12.4049924,1.15464301 12.5267175,1.12575004 C12.6484425,1.09685706 12.7740076,1.15576289 12.8296,1.26784 C14.6846931,5.0580368 15.6543802,9.22018483 15.66544,13.44 L12.3199957,13.44 L12.3199957,1.3888 Z M13.44,26.32 C13.44,26.6292795 13.1892795,26.88 12.88,26.88 C12.5707205,26.88 12.32,26.6292795 12.32,26.32 L12.32,18.48 C12.32,18.1707205 12.5707205,17.92 12.88,17.92 C13.1892795,17.92 13.44,18.1707205 13.44,18.48 L13.44,26.32 Z" id="Shape"></path>
            </g>
        </g>
    </g>
</svg>