<?xml version="1.0" encoding="UTF-8"?>
<svg width="25px" height="27px" viewBox="0 0 25 27" version="1.1" xmlns="http://www.w3.org/2000/svg" xmlns:xlink="http://www.w3.org/1999/xlink">
    <!-- Generator: Sketch 63.1 (92452) - https://sketch.com -->
    <title>icon-bus</title>
    <desc>Created with Sketch.</desc>
    <g id="UI-design" stroke="none" stroke-width="1" fill="none" fill-rule="evenodd">
        <g id="Homepage---Desktop" transform="translate(-577.000000, -3031.000000)" fill-rule="nonzero" stroke="#033B47">
            <g id="icon-bus" transform="translate(578.000000, 3032.000000)">
                <path d="M0,18.75 C0,19.9998698 0.902604167,20.3470703 1.73613281,21.1113932 L1.73613281,23.6111328 C1.73613281,24.3747396 2.36106771,25.0000651 3.125,25.0000651 L4.51386719,25.0000651 C5.27779948,25.0000651 5.90279948,24.3748047 5.90279948,23.6111328 L5.90279948,22.2222656 L17.0138672,22.2222656 L17.0138672,23.6111328 C17.0138672,24.3747396 17.6391276,25.0000651 18.4027995,25.0000651 L19.7916667,25.0000651 C20.5552734,25.0000651 21.1805339,24.3748047 21.1805339,23.6111328 L21.1805339,21.1113932 C22.0140625,20.3470703 22.9166667,19.9307292 22.9166667,18.75 L22.9166667,5.49049479 C22.9166667,0.629361979 17.5692708,0 11.4583333,0 C5.34739583,0 0,0.629361979 0,5.49049479 L0,18.75 Z M5.20833333,19.7909505 C4.02760417,19.7909505 3.125,18.8883464 3.125,17.7076172 C3.125,16.5269531 4.02760417,15.6242839 5.20833333,15.6242839 C6.3890625,15.6242839 7.29166667,16.5269531 7.29166667,17.7076172 C7.29166667,18.8883464 6.3890625,19.7909505 5.20833333,19.7909505 Z M17.7083333,19.7909505 C16.5276042,19.7909505 15.625,18.8883464 15.625,17.7076172 C15.625,16.5269531 16.5276042,15.6242839 17.7083333,15.6242839 C18.8890625,15.6242839 19.7916667,16.5269531 19.7916667,17.7076172 C19.7916667,18.8883464 18.8890625,19.7909505 17.7083333,19.7909505 Z M19.7916667,11.8055339 L3.125,11.8055339 L3.125,4.86113281 L19.7916667,4.86113281 L19.7916667,11.8055339 L19.7916667,11.8055339 Z" id="Icon_14_"></path>
            </g>
        </g>
    </g>
</svg>