<?xml version="1.0" encoding="UTF-8"?>
<svg width="26px" height="26px" viewBox="0 0 26 26" version="1.1" xmlns="http://www.w3.org/2000/svg" xmlns:xlink="http://www.w3.org/1999/xlink">
    <!-- Generator: Sketch 63.1 (92452) - https://sketch.com -->
    <title>icon-parkeren</title>
    <desc>Created with Sketch.</desc>
    <g id="UI-design" stroke="none" stroke-width="1" fill="none" fill-rule="evenodd">
        <g id="Homepage---Desktop" transform="translate(-197.000000, -3030.000000)" fill-rule="nonzero">
            <g id="icon-parkeren" transform="translate(197.000000, 3030.000000)">
                <path d="M13.9725806,6.80209677 L9.51612903,6.80209677 C9.30225806,6.80209677 9.12903226,6.97532258 9.12903226,7.18919355 L9.12903226,18.8020968 C9.12903226,19.0159677 9.30225806,19.1891935 9.51612903,19.1891935 L10.2903226,19.1891935 C10.5041935,19.1891935 10.6774194,19.0159677 10.6774194,18.8020968 L10.6774194,15.3182258 L14.1612903,15.3182258 C16.6498387,15.3182258 18.6458065,13.1737097 18.3985484,10.6353226 C18.1832258,8.42354839 16.195,6.80209677 13.9725806,6.80209677 Z M14.1612903,13.7698387 L10.6774194,13.7698387 L10.6774194,8.35048387 L14.1612903,8.35048387 C15.6554839,8.35048387 16.8709677,9.56596774 16.8709677,11.0601613 C16.8709677,12.5543548 15.6554839,13.7698387 14.1612903,13.7698387 Z" id="Shape" fill="#033B47"></path>
                <path d="M13.0483871,1.0483871 C9.74005376,1.0483871 6.7401787,2.39443144 4.56730507,4.56730507 C2.39443144,6.7401787 1.0483871,9.74005376 1.0483871,13.0483871 C1.0483871,16.3567204 2.39443144,19.3565955 4.56730507,21.5294691 C6.7401787,23.7023428 9.74005376,25.0483871 13.0483871,25.0483871 C16.3567204,25.0483871 19.3565955,23.7023428 21.5294691,21.5294691 C23.7023428,19.3565955 25.0483871,16.3567204 25.0483871,13.0483871 C25.0483871,9.74005376 23.7023428,6.7401787 21.5294691,4.56730507 C19.3565955,2.39443144 16.3567204,1.0483871 13.0483871,1.0483871 Z" id="Path" stroke="#033B47"></path>
            </g>
        </g>
    </g>
</svg>