<svg width="30" height="30" viewBox="0 0 30 30" xmlns="http://www.w3.org/2000/svg"><title>Icon</title><path d="M14.995.5c3.937 0 4.43.016 5.976.087 1.543.07 2.597.315 3.519.674a7.1 7.1 0 0 1 2.567 1.671A7.106 7.106 0 0 1 28.73 5.5c.359.922.604 1.976.674 3.519.07 1.546.087 2.04.087 5.976 0 3.937-.016 4.43-.087 5.976-.07 1.543-.315 2.597-.674 3.519a7.106 7.106 0 0 1-1.672 2.567 7.106 7.106 0 0 1-2.567 1.672c-.922.359-1.976.604-3.519.674-1.546.07-2.04.087-5.976.087-3.937 0-4.43-.016-5.976-.087-1.543-.07-2.597-.315-3.52-.674a7.106 7.106 0 0 1-2.567-1.672 7.105 7.105 0 0 1-1.671-2.567c-.359-.922-.604-1.976-.674-3.519C.517 19.425.5 18.931.5 14.995c0-3.937.016-4.43.087-5.976.07-1.543.315-2.597.674-3.52a7.105 7.105 0 0 1 1.671-2.567A7.105 7.105 0 0 1 5.5 1.261C6.422.902 7.476.657 9.019.587 10.565.517 11.059.5 14.995.5zm5.857 2.696c-1.528-.07-1.987-.085-5.857-.085s-4.329.015-5.857.085c-1.414.064-2.181.3-2.692.499a4.49 4.49 0 0 0-1.667 1.084 4.49 4.49 0 0 0-1.084 1.667c-.199.51-.435 1.278-.5 2.692-.069 1.528-.084 1.987-.084 5.857s.015 4.329.085 5.857c.064 1.414.3 2.181.499 2.692a4.49 4.49 0 0 0 1.084 1.667c.507.507.99.821 1.667 1.084.51.198 1.278.435 2.692.5 1.528.069 1.986.084 5.857.084 3.87 0 4.33-.015 5.857-.085 1.414-.064 2.181-.3 2.692-.499a4.49 4.49 0 0 0 1.667-1.084 4.49 4.49 0 0 0 1.084-1.667c.198-.51.435-1.278.5-2.692.069-1.528.084-1.987.084-5.857s-.015-4.329-.085-5.857c-.064-1.414-.3-2.181-.499-2.692a4.49 4.49 0 0 0-1.084-1.667 4.49 4.49 0 0 0-1.667-1.084c-.51-.199-1.278-.435-2.692-.5zM14.995 7.55a7.444 7.444 0 1 1 0 14.887 7.444 7.444 0 0 1 0-14.887zm0 12.276a4.832 4.832 0 1 1 0-9.664 4.832 4.832 0 0 1 0 9.664zm9.477-12.57a1.74 1.74 0 1 1-3.479 0 1.74 1.74 0 0 1 3.48 0z" fill="#0065f2" fill-rule="evenodd"/></svg>