<svg width="30" height="30" viewBox="0 0 30 30" xmlns="http://www.w3.org/2000/svg"><title>Icon</title><path d="M25.213 25.211h-4.3V18.48c0-1.605-.03-3.668-2.237-3.668-2.236 0-2.578 1.75-2.578 3.554v6.845h-4.297v-13.84h4.121v1.892h.06c.575-1.087 1.977-2.234 4.07-2.234 4.357 0 5.16 2.864 5.16 6.592v7.59zM6.95 9.481a2.495 2.495 0 1 1-.005-4.989 2.495 2.495 0 0 1 .005 4.99zm-2.156 15.73h4.307v-13.84H4.795v13.84zM27.354.5H2.638C1.458.5.5 1.436.5 2.591v24.816c0 1.155.959 2.093 2.138 2.093h24.716c1.183 0 2.146-.938 2.146-2.093V2.591C29.5 1.436 28.537.5 27.354.5z" fill="#0065f2" fill-rule="evenodd"/></svg>