<svg width="32" height="32" viewBox="0 0 32 32" xmlns="http://www.w3.org/2000/svg"><title>_Icons / 32px - Social / Copy Link</title><path d="M22.448 3.507c-1.586.076-3.11.767-4.289 1.945l-4.623 4.62c.727-.73 3.422-.228 4.076.426l2.798-2.797c.62-.619 1.395-.999 2.19-1.033a2.546 2.546 0 0 1 1.977.76c.627.627.76 1.356.76 1.854 0 .832-.38 1.66-1.034 2.31l-4.866 4.894c-1.224 1.224-3.087 1.323-4.167.244a1.599 1.599 0 0 0-2.25 0c-.62.619-.62 1.63 0 2.249a5.718 5.718 0 0 0 4.075 1.672c1.627 0 3.288-.665 4.562-1.946l4.897-4.863c1.243-1.239 1.946-2.896 1.946-4.56 0-1.546-.585-3.017-1.673-4.104-1.163-1.162-2.726-1.747-4.38-1.671zm-7.543 7.842c-1.627 0-3.315.669-4.592 1.946l-4.867 4.863C4.203 19.397 3.5 21.054 3.5 22.718c0 1.546.585 3.017 1.673 4.104 1.163 1.162 2.726 1.747 4.38 1.671 1.585-.076 3.11-.767 4.288-1.945l4.623-4.62c-.73.73-3.422.228-4.076-.426l-2.798 2.797c-.62.619-1.395.995-2.19 1.033a2.546 2.546 0 0 1-1.977-.76 2.583 2.583 0 0 1-.76-1.854c0-.832.38-1.66 1.034-2.31l4.866-4.894c1.224-1.224 3.087-1.319 4.167-.244.62.62 1.635.62 2.25 0 .62-.619.62-1.63 0-2.249a5.724 5.724 0 0 0-4.075-1.672z" fill="#0065fe" fill-rule="evenodd"/></svg>