<?xml version="1.0" encoding="UTF-8"?>
<svg width="172px" height="37px" viewBox="0 0 172 37" version="1.1" xmlns="http://www.w3.org/2000/svg" xmlns:xlink="http://www.w3.org/1999/xlink">
    <!-- Generator: Sketch 63.1 (92452) - https://sketch.com -->
    <title>logo-biljoenbad</title>
    <desc>Created with Sketch.</desc>
    <defs>
        <polygon id="path-1" points="30.1226851 7.20409848e-05 39.7490541 7.20409848e-05 39.7490541 27.0427449 30.1226851 27.0427449"></polygon>
        <polygon id="path-3" points="37.2126139 0.821435323 47.1421775 0.821435323 47.1421775 36.9880749 37.2126139 36.9880749"></polygon>
        <polygon id="path-5" points="2.40059079e-05 9.60546464e-05 19.252498 9.60546464e-05 19.252498 27.1691528 2.40059079e-05 27.1691528"></polygon>
    </defs>
    <g id="UI-design" stroke="none" stroke-width="1" fill="none" fill-rule="evenodd">
        <g id="Homepage---Desktop" transform="translate(-165.000000, -21.000000)">
            <g id="logo-biljoenbad" transform="translate(165.000000, 21.000000)">
                <path d="M22.101159,9.12360651 C22.7577206,8.76988528 23.4586931,8.48556352 24.2045567,8.27064125 C24.9492199,8.05619925 25.7894267,7.94837791 26.7246969,7.94837791 L26.7246969,26.107749 C25.6379494,26.6893598 24.3999647,27.055328 23.0105028,27.2070944 L22.101159,27.2070944 L22.101159,9.12360651 Z" id="Path" fill="#00768F"></path>
                <path d="M24.4126879,6.01503802 C23.6795475,6.01503802 23.0673968,5.76265443 22.5747956,5.25692672 C22.0819543,4.75143914 21.8358937,4.13236694 21.8358937,3.39922986 C21.8358937,2.66657304 22.0819543,2.05326412 22.5747956,1.56050379 C23.0673968,1.06774345 23.6795475,0.821363282 24.4126879,0.821363282 C25.1455882,0.821363282 25.7642205,1.06774345 26.2697849,1.56050379 C26.7751093,2.05326412 27.0278915,2.66657304 27.0278915,3.39922986 C27.0278915,4.13236694 26.7751093,4.75143914 26.2697849,5.25692672 C25.7642205,5.76265443 25.1455882,6.01503802 24.4126879,6.01503802 L24.4126879,6.01503802 Z" id="Path" fill="#00768F"></path>
                <mask id="mask-2" fill="white">
                    <use xlink:href="#path-1"></use>
                </mask>
                <g id="Clip-4"></g>
                <path d="M35.1063115,20.1938085 C35.3715768,20.9776144 35.7314254,21.6598425 36.1865774,22.240733 C36.6414893,22.822584 37.1777813,23.2834062 37.7973738,23.6246403 C38.416006,23.9658744 39.0668062,24.1363714 39.7490541,24.1363714 L39.7490541,27.0427449 C38.4095244,27.0427449 37.1590567,27.0304979 35.9969307,26.5247702 C34.8348047,26.0192826 33.8179145,25.3305708 32.94626,24.4588749 C32.0743654,23.5866987 31.3858759,22.5697201 30.8807917,21.4067385 C30.3749872,20.2444773 30.1226851,18.9933655 30.1226851,17.6536433 L30.1226851,1.13728701 C30.7794867,0.783805915 31.4804592,0.50596785 32.2260827,0.30305241 C32.970986,0.101337652 33.7991899,3.41254656e-15 34.7085336,3.41254656e-15 L34.7085336,17.6536433 C34.7085336,18.563521 34.8412863,19.410723 35.1063115,20.1938085" id="Fill-3" fill="#00768F"></path>
                <mask id="mask-4" fill="white">
                    <use xlink:href="#path-3"></use>
                </mask>
                <g id="Clip-7"></g>
                <path d="M44.527214,0.821435323 C45.2596342,0.821435323 45.8785065,1.06757535 46.384311,1.56057583 C46.8893953,2.05333616 47.1421775,2.66664508 47.1421775,3.3993019 C47.1421775,4.13243899 46.8893953,4.75151118 46.384311,5.25699876 C45.8785065,5.76272647 45.2596342,6.01486992 44.527214,6.01486992 C43.7940736,6.01486992 43.1819229,5.76272647 42.6890816,5.25699876 C42.1964804,4.75151118 41.9499397,4.13243899 41.9499397,3.3993019 C41.9499397,2.66664508 42.1964804,2.05333616 42.6890816,1.56057583 C43.1819229,1.06757535 43.7940736,0.821435323 44.527214,0.821435323 L44.527214,0.821435323 Z M46.8389829,27.3586926 C46.8389829,28.6981747 46.5859606,29.9490463 46.0811164,31.1117878 C45.5750719,32.274049 44.8870625,33.2915079 44.0156481,34.1636841 C43.1437535,35.0356201 42.1208618,35.7238517 40.9457726,36.2298195 C39.7709235,36.7348268 38.5269373,36.9881709 37.2126139,36.9881709 L37.2126139,33.8414207 C37.8948618,33.8414207 38.5394204,33.676687 39.1455696,33.3486604 C39.7519588,33.0199134 40.2822493,32.5648545 40.7374013,31.983964 C41.1920732,31.4023531 41.5519218,30.7196447 41.8174271,29.9365592 C42.0826924,29.1527533 42.215205,28.318999 42.215205,27.4345758 L42.215205,9.12367855 C42.8720066,8.76995732 43.5732192,8.48563556 44.3186026,8.27047316 C45.063506,8.05627129 45.9039528,7.94844995 46.8389829,7.94844995 L46.8389829,27.3586926 Z" id="Fill-6" fill="#00768F"></path>
                <path d="M58.4171282,7.87268685 C59.7307315,7.87268685 60.9751978,8.12555071 62.1500469,8.63079815 C63.324896,9.136766 64.3482679,9.82499754 65.2196823,10.6969336 C66.0915769,11.5688696 66.7795862,12.592572 67.2853907,13.7678006 C67.790475,14.9430292 68.0432572,16.1878975 68.0432572,17.501925 C68.0432572,18.8418873 67.790475,20.092759 67.2853907,21.2552603 C66.7795862,22.4177617 66.0915769,23.4349804 65.2196823,24.3069164 C64.3482679,25.1788525 63.324896,25.8678045 62.1500469,26.3728118 C60.9751978,26.8782993 59.7307315,27.1314033 58.4171282,27.1314033 C57.0775986,27.1314033 55.8268908,26.8782993 54.6652449,26.3728118 C53.5026388,25.8678045 52.4862287,25.1788525 51.6143341,24.3069164 C50.7426796,23.4349804 50.0539501,22.4177617 49.5491059,21.2552603 C49.0433014,20.092759 48.7907592,18.8418873 48.7907592,17.501925 C48.7907592,16.1878975 49.0433014,14.9430292 49.5491059,13.7678006 C50.0539501,12.592572 50.7426796,11.5688696 51.6143341,10.6969336 C52.4862287,9.82499754 53.5026388,9.136766 54.6652449,8.63079815 C55.8268908,8.12555071 57.0775986,7.87268685 58.4171282,7.87268685 Z M58.4171282,11.0191969 C57.7094341,11.0191969 57.0526324,11.1896939 56.4464833,11.5309281 C55.840094,11.8721622 55.3095635,12.3399483 54.8548916,12.933566 C54.3999796,13.527664 54.0401311,14.2168561 53.7746257,14.9999416 C53.5093605,15.7835074 53.3766078,16.6175019 53.3766078,17.501925 C53.3766078,18.3868285 53.5093605,19.2268263 53.7746257,20.0228792 C54.0401311,20.8189321 54.3999796,21.5081242 54.8548916,22.0890147 C55.3095635,22.6706255 55.840094,23.1316878 56.4464833,23.472922 C57.0526324,23.813916 57.7094341,23.9846531 58.4171282,23.9846531 C59.0993761,23.9846531 59.7494561,23.813916 60.3690486,23.472922 C60.9876808,23.1316878 61.524693,22.6706255 61.979605,22.0890147 C62.4342768,21.5081242 62.7943655,20.8189321 63.0598708,20.0228792 C63.324896,19.2268263 63.4576487,18.3868285 63.4576487,17.501925 C63.4576487,16.6175019 63.324896,15.7835074 63.0598708,14.9999416 C62.7943655,14.2168561 62.4342768,13.527664 61.979605,12.933566 C61.524693,12.3399483 60.9876808,11.8721622 60.3690486,11.5309281 C59.7494561,11.1896939 59.0993761,11.0191969 58.4171282,11.0191969 Z" id="Combined-Shape" fill="#00768F"></path>
                <path d="M98.3520361,7.87261481 C99.6908456,7.87261481 100.922589,8.12547867 102.047506,8.63096624 C103.170982,9.13669396 104.13746,9.8249255 104.946459,10.6971017 C105.754498,11.5687976 106.386573,12.5925 106.841245,13.7677286 C107.296157,14.9429572 107.523493,16.1878254 107.523493,17.501853 L107.523493,26.107869 C106.866211,26.4618304 106.164999,26.7463923 105.420096,26.9608343 C104.674712,27.1757566 103.834265,27.2828575 102.899955,27.2828575 L102.899955,17.501853 C102.899955,16.61767 102.792169,15.7834354 102.577796,14.9998696 C102.362703,14.2167841 102.059508,13.527592 101.668212,12.933494 C101.276196,12.3401164 100.802319,11.8720902 100.247062,11.530856 C99.6908456,11.1896219 99.0590101,11.0191249 98.3520361,11.0191249 C97.6697882,11.0191249 97.0446743,11.1896219 96.4762144,11.530856 C95.9077545,11.8720902 95.4273963,12.3401164 95.0361,12.933494 C94.6440836,13.527592 94.3408889,14.2167841 94.1265162,14.9998696 C93.9114233,15.7834354 93.8043569,16.61767 93.8043569,17.501853 L93.8043569,26.107869 C93.1468351,26.4618304 92.4456225,26.7463923 91.7009593,26.9608343 C90.9553358,27.1757566 90.1280922,27.2828575 89.2185084,27.2828575 L89.2185084,17.501853 C89.2185084,16.1878254 89.4458443,14.9429572 89.9007562,13.7677286 C90.3556682,12.5925 90.9867835,11.5687976 91.7957826,10.6971017 C92.6040615,9.8249255 93.5640578,9.13669396 94.6760114,8.63096624 C95.787485,8.12547867 97.0127465,7.87261481 98.3520361,7.87261481" id="Fill-11" fill="#00768F"></path>
                <mask id="mask-6" fill="white">
                    <use xlink:href="#path-5"></use>
                </mask>
                <g id="Clip-14"></g>
                <path d="M18.4946315,13.7865793 C17.988827,12.6245582 17.3005776,11.6068593 16.4289231,10.7349232 C15.5575086,9.86298715 14.5343769,9.17451547 13.3590476,8.66878776 C12.1844385,8.16330018 10.9397322,7.91043633 9.62636901,7.91043633 C9.10063963,7.91043633 8.58763339,7.95101941 8.08687015,8.03122504 L8.08687015,11.370805 C8.57491025,11.1633269 9.08743639,11.0571865 9.62636901,11.0571865 C10.3083769,11.0571865 10.9584568,11.2276835 11.5780493,11.5689177 C12.1969216,11.9101518 12.7339338,12.3716944 13.1886057,12.9525849 C13.6435176,13.5341957 14.0036062,14.2169041 14.2688715,14.9999896 C14.5343769,15.7833153 14.6668895,16.630037 14.6668895,17.5399146 C14.6668895,18.4248181 14.5343769,19.2645758 14.2688715,20.0608688 C14.0036062,20.8569217 13.6435176,21.5461138 13.1886057,22.1270043 C12.7339338,22.7086152 12.1969216,23.1696775 11.5780493,23.5109116 C10.9584568,23.8519056 10.3083769,24.0226427 9.62636901,24.0226427 C8.94436117,24.0226427 8.29332096,23.8519056 7.67468871,23.5109116 C7.05533629,23.1696775 6.51856419,22.7086152 6.06365224,22.1270043 C5.60898035,21.5461138 5.24889173,20.8701292 4.98386651,20.0988104 C4.71836117,19.328212 4.58584856,18.5007012 4.58584856,17.6155577 L4.58584856,9.31331444 L4.58584856,9.60546464e-05 C3.67602466,9.60546464e-05 2.84830096,0.101433707 2.10339764,0.303148464 C1.3580142,0.505823768 0.656801636,0.78390197 -4.60545031e-14,1.13738307 L-4.60545031e-14,17.5399146 C-4.60545031e-14,18.879877 0.252302091,20.1307486 0.758106567,21.2930098 C1.26319087,22.4557513 1.95192036,23.47297 2.82357487,24.3446659 C3.69522938,25.2168421 4.71187958,25.9055539 5.87448569,26.4108014 C7.03613157,26.9162889 8.28683936,27.1691528 9.62636901,27.1691528 C10.9397322,27.1691528 12.1844385,26.9162889 13.3590476,26.4108014 C14.5343769,25.9055539 15.5575086,25.2168421 16.4289231,24.3446659 C17.3005776,23.47297 17.988827,22.4557513 18.4946315,21.2930098 C18.9997158,20.1307486 19.252498,18.879877 19.252498,17.5399146 C19.252498,16.2004326 18.9997158,14.949561 18.4946315,13.7865793" id="Fill-13" fill="#00768F"></path>
                <path d="M128.155443,13.7865793 C127.649638,12.6245582 126.961629,11.6068593 126.089974,10.7349232 C125.21832,9.86298715 124.195188,9.17451547 123.019859,8.66878776 C121.84525,8.16330018 120.600543,7.91043633 119.28718,7.91043633 C118.739605,7.91043633 118.205954,7.95510174 117.685026,8.04227133 L117.685026,11.3984207 C118.191791,11.1726923 118.725202,11.0571865 119.28718,11.0571865 C119.969428,11.0571865 120.619268,11.2276835 121.23886,11.5689177 C121.857973,11.9101518 122.394745,12.3716944 122.849417,12.9525849 C123.304569,13.5341957 123.664417,14.2169041 123.929683,14.9999896 C124.195188,15.7833153 124.327701,16.630037 124.327701,17.5399146 C124.327701,18.4248181 124.195188,19.2645758 123.929683,20.0608688 C123.664417,20.8569217 123.304569,21.5461138 122.849417,22.1270043 C122.394745,22.7086152 121.857973,23.1696775 121.23886,23.5109116 C120.619268,23.8519056 119.969428,24.0226427 119.28718,24.0226427 C118.605172,24.0226427 117.954132,23.8519056 117.3355,23.5109116 C116.716147,23.1696775 116.179375,22.7086152 115.724703,22.1270043 C115.270032,21.5461138 114.909703,20.8701292 114.644678,20.0988104 C114.379412,19.328212 114.24666,18.5007012 114.24666,17.6155577 L114.24666,9.31331444 L114.24666,9.60546464e-05 C113.337076,9.60546464e-05 112.509112,0.101433707 111.764209,0.303148464 C111.018825,0.505823768 110.317853,0.78390197 109.660811,1.13738307 L109.660811,17.5399146 C109.660811,18.879877 109.913113,20.1307486 110.418918,21.2930098 C110.924002,22.4557513 111.612972,23.47297 112.484386,24.3446659 C113.356041,25.2168421 114.372931,25.9055539 115.535537,26.4108014 C116.697183,26.9162889 117.94765,27.1691528 119.28718,27.1691528 C120.600543,27.1691528 121.84525,26.9162889 123.019859,26.4108014 C124.195188,25.9055539 125.21832,25.2168421 126.089974,24.3446659 C126.961629,23.47297 127.649638,22.4557513 128.155443,21.2930098 C128.660527,20.1307486 128.913309,18.879877 128.913309,17.5399146 C128.913309,16.2004326 128.660527,14.949561 128.155443,13.7865793" id="Fill-16" fill="#00768F"></path>
                <path d="M168.924244,0.303172478 C168.17886,0.505847782 167.477648,0.783685847 166.821086,1.13740708 L166.821086,17.6155817 C166.821086,18.5007252 166.681852,19.328236 166.404103,20.0988344 C166.125875,20.8699131 165.759785,21.5458977 165.305113,22.1270283 C164.850201,22.7086392 164.319911,23.1697015 163.713281,23.5109356 C163.106892,23.8516895 162.462814,24.0226667 161.780566,24.0226667 C161.098318,24.0226667 160.454239,23.8516895 159.84761,23.5109356 C159.241461,23.1697015 158.71069,22.7086392 158.256018,22.1270283 C157.801346,21.5458977 157.441018,20.8569457 157.176232,20.0608928 C156.910727,19.2645998 156.777734,18.4248421 156.777734,17.5399386 C156.777734,16.630061 156.910727,15.7833393 157.176232,15.0000137 C157.441018,14.216688 157.801346,13.5342198 158.256018,12.9526089 C158.71069,12.3717184 159.241461,11.9101758 159.84761,11.5689417 C160.454239,11.2277076 161.098318,11.0572106 161.780566,11.0572106 C162.36727,11.0572106 162.918206,11.1755979 163.436253,11.4068495 L163.436253,8.04781848 C162.899721,7.95752712 162.348305,7.91046034 161.780566,7.91046034 C160.441036,7.91046034 159.190328,8.1633242 158.028682,8.66881177 C156.866316,9.17453949 155.849186,9.86301117 154.977771,10.7349472 C154.106117,11.6068833 153.417387,12.6245823 152.912543,13.7866033 C152.406499,14.949585 152.154437,16.2004566 152.154437,17.5399386 C152.154437,18.879901 152.406499,20.1307726 152.912543,21.2930338 C153.417387,22.4557753 154.106117,23.472994 154.977771,24.3446899 C155.849186,25.2168661 156.866316,25.9055779 158.028682,26.4108254 C159.190328,26.916313 160.441036,27.1691768 161.780566,27.1691768 C163.119375,27.1691768 164.376564,26.916313 165.551414,26.4108254 C166.726503,25.9055779 167.749395,25.2168661 168.621049,24.3446899 C169.492944,23.472994 170.180713,22.4557753 170.686757,21.2930338 C171.191842,20.1307726 171.444624,18.879901 171.444624,17.5399386 L171.444624,0.000120068308 C170.509594,0.000120068308 169.669387,0.10145772 168.924244,0.303172478" id="Fill-18" fill="#00768F"></path>
                <path d="M149.282298,13.7865793 C148.776493,12.6245582 148.088484,11.6066191 147.21683,10.7349232 C146.345175,9.86274702 145.327805,9.17451547 144.166159,8.66878776 C143.003553,8.16330018 141.753085,7.91043633 140.414035,7.91043633 C139.074746,7.91043633 137.824038,8.16330018 136.662392,8.66878776 C135.499786,9.17451547 134.483136,9.86274702 133.611481,10.7349232 C132.739827,11.6066191 132.050857,12.6245582 131.545773,13.7865793 C131.040449,14.949561 130.788146,16.2004326 130.788146,17.5399146 C130.788146,18.8796368 131.040449,20.1307486 131.545773,21.2930098 C132.050857,22.4557513 132.739827,23.47297 133.611481,24.3446659 C134.483136,25.2168421 135.499786,25.9055539 136.662392,26.4108014 C137.824038,26.9162889 139.074746,27.1691528 140.414035,27.1691528 C141.146696,27.1691528 141.847668,27.0932696 142.517433,26.9417434 C142.756292,26.8874726 142.989629,26.8223955 143.220566,26.7522756 L142.603374,23.3420956 C141.926408,23.7690585 141.197348,23.9847011 140.414035,23.9847011 C139.732028,23.9847011 139.080987,23.813964 138.462355,23.47297 C137.843003,23.1317359 137.306231,22.6706736 136.851799,22.0890627 C136.396887,21.5081722 136.036798,20.8254638 135.771773,20.041898 C135.506268,19.2590527 135.373755,18.4248181 135.373755,17.5399146 C135.373755,16.630037 135.506268,15.7833153 135.771773,14.9999896 C136.036798,14.2169041 136.396887,13.5341957 136.851799,12.9525849 C137.306231,12.3716944 137.843003,11.9101518 138.462355,11.5689177 C139.080987,11.2276835 139.732028,11.0571865 140.414035,11.0571865 C141.475337,11.0571865 142.416128,11.4238752 143.23737,12.1562918 C144.058132,12.8899092 144.671003,13.8374883 145.075503,14.9999896 C145.201774,15.4043797 145.296597,15.8150133 145.359973,16.2318905 C145.422628,16.6487677 145.454556,17.0848557 145.454556,17.5399146 L145.454556,25.9055539 C146.111117,26.2595153 146.81257,26.5375935 147.557713,26.7393083 C148.302857,26.9422237 149.130821,27.0428409 150.040164,27.0428409 L150.040164,17.5399146 C150.040164,16.2004326 149.787382,14.949561 149.282298,13.7865793" id="Fill-20" fill="#00768F"></path>
                <path d="M86.9534309,12.3081062 C86.5364483,11.4491375 85.9682285,10.6910262 85.2480512,10.0335322 C84.527874,9.3765184 83.6754242,8.8525403 82.6897416,8.46015707 C81.7045392,8.06873438 80.6682042,7.87254277 79.5821769,7.87254277 C78.2426472,7.87254277 76.985938,8.12564676 75.8113289,8.6308942 C74.6364798,9.13662192 73.613348,9.82485346 72.7414534,10.6970296 C71.870039,11.5687256 71.1810694,12.5926681 70.6759851,13.7678967 C70.1704207,14.9428852 69.9178785,16.2004806 69.9178785,17.5399627 C69.9178785,18.879925 70.1704207,20.1307966 70.6759851,21.2930578 C71.1810694,22.4557993 71.870039,23.473018 72.7414534,24.344714 C73.613348,25.2168901 74.6364798,25.905602 75.8113289,26.4108494 C76.985938,26.916337 78.2426472,27.1692008 79.5821769,27.1692008 C80.870574,27.1692008 82.0835925,26.9285839 83.2202722,26.448791 C84.3574321,25.968998 85.3551176,25.311504 86.214289,24.4775095 L83.9781387,22.2029355 C83.5738792,22.5821112 83.1446536,22.9106181 82.6897416,23.1884561 C82.2854822,23.4415601 81.8180871,23.6499987 81.2873165,23.814012 C80.757026,23.9787457 80.1885661,24.0356581 79.5821769,23.9847492 C78.8744827,23.9847492 78.2176811,23.8204957 77.6115319,23.4917487 C77.0051427,23.1637221 76.4746121,22.7144265 76.0199402,22.1460231 C75.5650283,21.5773796 75.2051797,20.9138821 74.9396744,20.1555307 C74.6744091,19.3974194 74.5416564,18.5763923 74.5416564,17.6914889 C74.5416564,16.756637 74.6612059,15.8907044 74.901745,15.0946515 C75.1415641,14.2985986 75.4759664,13.6161304 75.9061522,13.0472467 C76.3353779,12.4788433 76.8469438,12.036992 77.4408499,11.7204919 C78.034276,11.4049524 78.6973191,11.2467024 79.4304595,11.2467024 C80.3650095,11.2467024 81.0914283,11.3792578 81.6094758,11.6446087 C82.1272832,11.9101998 82.5192997,12.2199761 82.784805,12.5734572 C83.0498303,12.9278988 83.2137906,13.2748962 83.2771662,13.6161304 C83.3400617,13.9573645 83.3719895,14.1910174 83.3719895,14.3173293 C83.3719895,14.4690956 83.3086139,14.7534174 83.1825829,15.1702945 C83.0558317,15.5874118 82.7274309,15.9855583 82.1973805,16.3647341 C81.6666099,16.7436696 80.8643324,17.0090206 79.7907882,17.1607869 C79.1390278,17.2527593 78.3343498,17.2455552 77.3805951,17.1420563 L77.8943215,20.3486005 C78.635864,20.4035918 79.3692445,20.4107959 80.0937428,20.3642094 C81.4704816,20.2758391 82.6957431,20.0229753 83.7697674,19.605858 C84.8435517,19.1887407 85.7214477,18.5953631 86.4039357,17.8240443 C87.0861836,17.0534459 87.4520336,16.1123505 87.5029262,14.9997975 C87.5533386,14.0651858 87.3701735,13.1677953 86.9534309,12.3081062" id="Fill-22" fill="#00768F"></path>
            </g>
        </g>
    </g>
</svg>