<svg width="30" height="30" viewBox="0 0 30 30" xmlns="http://www.w3.org/2000/svg"><title>Icon</title><path d="M14.999.5C6.991.5.499 6.992.499 15c0 6.143 3.823 11.394 9.216 13.507-.127-1.147-.241-2.912.05-4.164.264-1.132 1.7-7.208 1.7-7.208s-.433-.868-.433-2.152c0-2.017 1.168-3.522 2.623-3.522 1.237 0 1.835.93 1.835 2.043 0 1.244-.792 3.104-1.2 4.828-.342 1.443.723 2.62 2.146 2.62 2.577 0 4.558-2.718 4.558-6.64 0-3.472-2.494-5.9-6.056-5.9-4.126 0-6.547 3.095-6.547 6.293 0 1.247.48 2.583 1.079 3.31a.43.43 0 0 1 .1.415c-.11.458-.354 1.443-.402 1.645-.064.265-.21.321-.485.194-1.811-.843-2.943-3.491-2.943-5.618 0-4.574 3.323-8.774 9.58-8.774 5.03 0 8.938 3.584 8.938 8.374 0 4.997-3.15 9.02-7.523 9.02-1.47 0-2.85-.764-3.324-1.666 0 0-.727 2.769-.903 3.447-.327 1.26-1.21 2.838-1.802 3.801 1.357.42 2.798.647 4.293.647 8.008 0 14.5-6.492 14.5-14.5S23.006.5 14.998.5" fill="#0065f2" fill-rule="evenodd"/></svg>