<svg width="24" height="24" viewBox="0 0 24 24" xmlns="http://www.w3.org/2000/svg"><title>_Icons / 24px / Profile</title><path d="M14.966 12.528a8.643 8.643 0 0 1 5.657 8.208l-1.778-.05a6.847 6.847 0 0 0-6.859-6.859c-3.798 0-6.859 3.061-6.909 6.91l-1.777-.05c0-3.739 2.382-6.939 5.706-8.159a5.233 5.233 0 0 1-2.251-4.296A5.242 5.242 0 0 1 11.986 3a5.242 5.242 0 0 1 5.232 5.232c0 1.776-.893 3.35-2.252 4.296zm-2.98-7.7a3.394 3.394 0 0 0-3.404 3.404 3.394 3.394 0 0 0 3.404 3.404 3.394 3.394 0 0 0 3.405-3.404 3.394 3.394 0 0 0-3.405-3.405z" fill="#0065f2" fill-rule="evenodd"/></svg>